<svg width="1512" height="611" viewBox="0 0 1512 611" fill="none" xmlns="http://www.w3.org/2000/svg">
<path d="M229.76 158.223V170H229.162L221.516 161.58V170H219.934V158.223H220.531L228.178 166.748V158.223H229.76ZM237.16 161.035C238.051 161.035 238.842 161.246 239.533 161.668C240.225 162.09 240.764 162.652 241.15 163.355C241.549 164.059 241.748 164.826 241.748 165.658C241.748 166.49 241.549 167.258 241.15 167.961C240.764 168.652 240.225 169.209 239.533 169.631C238.842 170.053 238.051 170.264 237.16 170.264C236.27 170.264 235.479 170.053 234.787 169.631C234.096 169.209 233.551 168.652 233.152 167.961C232.766 167.258 232.572 166.49 232.572 165.658C232.572 164.826 232.766 164.059 233.152 163.355C233.551 162.652 234.096 162.09 234.787 161.668C235.479 161.246 236.27 161.035 237.16 161.035ZM237.16 162.441C236.539 162.441 235.994 162.594 235.525 162.898C235.057 163.191 234.693 163.584 234.436 164.076C234.189 164.557 234.066 165.084 234.066 165.658C234.066 166.221 234.189 166.748 234.436 167.24C234.693 167.721 235.057 168.113 235.525 168.418C235.994 168.711 236.539 168.857 237.16 168.857C237.793 168.857 238.338 168.711 238.795 168.418C239.264 168.113 239.621 167.721 239.867 167.24C240.125 166.748 240.254 166.221 240.254 165.658C240.254 165.084 240.125 164.557 239.867 164.076C239.621 163.584 239.264 163.191 238.795 162.898C238.338 162.594 237.793 162.441 237.16 162.441ZM255.652 161.211L252.576 170H251.68L249.271 163.795L246.863 170H245.967L242.891 161.211H244.613L246.564 167.381L248.867 161.211H249.676L251.979 167.381L253.93 161.211H255.652ZM265.109 158.68V161.211H267.676V162.564H265.109V167.715C265.109 168.078 265.203 168.365 265.391 168.576C265.578 168.787 265.865 168.893 266.252 168.893C266.604 168.893 266.896 168.852 267.131 168.77C267.365 168.676 267.57 168.576 267.746 168.471V169.648C267.512 169.836 267.26 169.982 266.99 170.088C266.732 170.205 266.381 170.264 265.936 170.264C265.186 170.264 264.617 170.041 264.23 169.596C263.855 169.139 263.668 168.535 263.668 167.785V162.564H261.98V162.143C262.555 161.885 263.035 161.463 263.422 160.877C263.809 160.279 264.148 159.547 264.441 158.68H265.109ZM274.602 161.035C275.199 161.035 275.744 161.17 276.236 161.439C276.729 161.697 277.121 162.096 277.414 162.635C277.707 163.162 277.854 163.83 277.854 164.639V170H276.412L276.395 164.779C276.395 164.018 276.225 163.438 275.885 163.039C275.557 162.641 275.047 162.441 274.355 162.441C273.887 162.441 273.418 162.617 272.949 162.969C272.492 163.309 272.088 163.707 271.736 164.164V170H270.295V157.344H271.736V162.6C271.924 162.365 272.164 162.131 272.457 161.896C272.75 161.65 273.078 161.445 273.441 161.281C273.816 161.117 274.203 161.035 274.602 161.035ZM284.199 161.035C284.703 161.035 285.213 161.158 285.729 161.404C286.256 161.639 286.707 161.967 287.082 162.389V161.211H288.523V170H287.082V168.506C286.777 168.975 286.361 169.385 285.834 169.736C285.318 170.088 284.727 170.264 284.059 170.264C283.309 170.264 282.623 170.076 282.002 169.701C281.381 169.314 280.883 168.781 280.508 168.102C280.145 167.422 279.963 166.637 279.963 165.746C279.963 164.773 280.145 163.936 280.508 163.232C280.883 162.529 281.393 161.99 282.037 161.615C282.682 161.229 283.402 161.035 284.199 161.035ZM284.463 162.441C283.83 162.441 283.291 162.6 282.846 162.916C282.4 163.232 282.055 163.643 281.809 164.146C281.574 164.639 281.457 165.172 281.457 165.746C281.457 166.309 281.574 166.83 281.809 167.311C282.043 167.779 282.371 168.154 282.793 168.436C283.227 168.717 283.725 168.857 284.287 168.857C284.826 168.857 285.307 168.717 285.729 168.436C286.15 168.154 286.484 167.768 286.73 167.275C286.977 166.771 287.094 166.209 287.082 165.588L287.064 163.9C286.701 163.443 286.309 163.086 285.887 162.828C285.477 162.57 285.002 162.441 284.463 162.441ZM293.938 158.68V161.211H296.504V162.564H293.938V167.715C293.938 168.078 294.031 168.365 294.219 168.576C294.406 168.787 294.693 168.893 295.08 168.893C295.432 168.893 295.725 168.852 295.959 168.77C296.193 168.676 296.398 168.576 296.574 168.471V169.648C296.34 169.836 296.088 169.982 295.818 170.088C295.561 170.205 295.209 170.264 294.764 170.264C294.014 170.264 293.445 170.041 293.059 169.596C292.684 169.139 292.496 168.535 292.496 167.785V162.564H290.809V162.143C291.383 161.885 291.863 161.463 292.25 160.877C292.637 160.279 292.977 159.547 293.27 158.68H293.938ZM304.889 161.211L307.965 167.68L310.953 161.211H312.676L306.207 174.219H304.537L307.051 169.473L303.166 161.211H304.889ZM318.406 161.035C319.297 161.035 320.088 161.246 320.779 161.668C321.471 162.09 322.01 162.652 322.396 163.355C322.795 164.059 322.994 164.826 322.994 165.658C322.994 166.49 322.795 167.258 322.396 167.961C322.01 168.652 321.471 169.209 320.779 169.631C320.088 170.053 319.297 170.264 318.406 170.264C317.516 170.264 316.725 170.053 316.033 169.631C315.342 169.209 314.797 168.652 314.398 167.961C314.012 167.258 313.818 166.49 313.818 165.658C313.818 164.826 314.012 164.059 314.398 163.355C314.797 162.652 315.342 162.09 316.033 161.668C316.725 161.246 317.516 161.035 318.406 161.035ZM318.406 162.441C317.785 162.441 317.24 162.594 316.771 162.898C316.303 163.191 315.939 163.584 315.682 164.076C315.436 164.557 315.312 165.084 315.312 165.658C315.312 166.221 315.436 166.748 315.682 167.24C315.939 167.721 316.303 168.113 316.771 168.418C317.24 168.711 317.785 168.857 318.406 168.857C319.039 168.857 319.584 168.711 320.041 168.418C320.51 168.113 320.867 167.721 321.113 167.24C321.371 166.748 321.5 166.221 321.5 165.658C321.5 165.084 321.371 164.557 321.113 164.076C320.867 163.584 320.51 163.191 320.041 162.898C319.584 162.594 319.039 162.441 318.406 162.441ZM332.557 161.211V166.414C332.557 167.188 332.393 167.855 332.064 168.418C331.736 168.98 331.291 169.414 330.729 169.719C330.166 170.023 329.533 170.176 328.83 170.176C328.127 170.176 327.494 170.023 326.932 169.719C326.369 169.414 325.924 168.98 325.596 168.418C325.268 167.855 325.104 167.188 325.104 166.414V161.211H326.598V166.414C326.598 167.176 326.82 167.762 327.266 168.172C327.723 168.57 328.244 168.77 328.83 168.77C329.416 168.77 329.932 168.57 330.377 168.172C330.834 167.762 331.062 167.176 331.062 166.414V161.211H332.557ZM348.324 161.211L344.246 165.043L348.553 170H346.725L343.244 165.992L341.996 167.152V170H340.555V157.344H341.996V165.5L346.373 161.211H348.324ZM351.576 161.211V162.6C351.764 162.365 352.004 162.131 352.297 161.896C352.59 161.65 352.918 161.445 353.281 161.281C353.656 161.117 354.043 161.035 354.441 161.035C355.039 161.035 355.584 161.17 356.076 161.439C356.568 161.697 356.961 162.096 357.254 162.635C357.547 163.162 357.693 163.83 357.693 164.639V170H356.252L356.234 164.779C356.234 164.018 356.064 163.438 355.725 163.039C355.396 162.641 354.887 162.441 354.195 162.441C353.727 162.441 353.258 162.617 352.789 162.969C352.332 163.309 351.928 163.707 351.576 164.164V170H350.135V161.211H351.576ZM364.391 161.035C365.281 161.035 366.072 161.246 366.764 161.668C367.455 162.09 367.994 162.652 368.381 163.355C368.779 164.059 368.979 164.826 368.979 165.658C368.979 166.49 368.779 167.258 368.381 167.961C367.994 168.652 367.455 169.209 366.764 169.631C366.072 170.053 365.281 170.264 364.391 170.264C363.5 170.264 362.709 170.053 362.018 169.631C361.326 169.209 360.781 168.652 360.383 167.961C359.996 167.258 359.803 166.49 359.803 165.658C359.803 164.826 359.996 164.059 360.383 163.355C360.781 162.652 361.326 162.09 362.018 161.668C362.709 161.246 363.5 161.035 364.391 161.035ZM364.391 162.441C363.77 162.441 363.225 162.594 362.756 162.898C362.287 163.191 361.924 163.584 361.666 164.076C361.42 164.557 361.297 165.084 361.297 165.658C361.297 166.221 361.42 166.748 361.666 167.24C361.924 167.721 362.287 168.113 362.756 168.418C363.225 168.711 363.77 168.857 364.391 168.857C365.023 168.857 365.568 168.711 366.025 168.418C366.494 168.113 366.852 167.721 367.098 167.24C367.355 166.748 367.484 166.221 367.484 165.658C367.484 165.084 367.355 164.557 367.098 164.076C366.852 163.584 366.494 163.191 366.025 162.898C365.568 162.594 365.023 162.441 364.391 162.441ZM382.883 161.211L379.807 170H378.91L376.502 163.795L374.094 170H373.197L370.121 161.211H371.844L373.795 167.381L376.098 161.211H376.906L379.209 167.381L381.16 161.211H382.883ZM393.535 161.035C394.039 161.035 394.549 161.158 395.064 161.404C395.592 161.639 396.043 161.967 396.418 162.389V161.211H397.859V170H396.418V168.506C396.113 168.975 395.697 169.385 395.17 169.736C394.654 170.088 394.062 170.264 393.395 170.264C392.645 170.264 391.959 170.076 391.338 169.701C390.717 169.314 390.219 168.781 389.844 168.102C389.48 167.422 389.299 166.637 389.299 165.746C389.299 164.773 389.48 163.936 389.844 163.232C390.219 162.529 390.729 161.99 391.373 161.615C392.018 161.229 392.738 161.035 393.535 161.035ZM393.799 162.441C393.166 162.441 392.627 162.6 392.182 162.916C391.736 163.232 391.391 163.643 391.145 164.146C390.91 164.639 390.793 165.172 390.793 165.746C390.793 166.309 390.91 166.83 391.145 167.311C391.379 167.779 391.707 168.154 392.129 168.436C392.562 168.717 393.061 168.857 393.623 168.857C394.162 168.857 394.643 168.717 395.064 168.436C395.486 168.154 395.82 167.768 396.066 167.275C396.312 166.771 396.43 166.209 396.418 165.588L396.4 163.9C396.037 163.443 395.645 163.086 395.223 162.828C394.812 162.57 394.338 162.441 393.799 162.441ZM407.562 157.344V170H406.121V157.344H407.562ZM414.523 161.035C415.414 161.035 416.205 161.246 416.896 161.668C417.588 162.09 418.127 162.652 418.514 163.355C418.912 164.059 419.111 164.826 419.111 165.658C419.111 166.49 418.912 167.258 418.514 167.961C418.127 168.652 417.588 169.209 416.896 169.631C416.205 170.053 415.414 170.264 414.523 170.264C413.633 170.264 412.842 170.053 412.15 169.631C411.459 169.209 410.914 168.652 410.516 167.961C410.129 167.258 409.936 166.49 409.936 165.658C409.936 164.826 410.129 164.059 410.516 163.355C410.914 162.652 411.459 162.09 412.15 161.668C412.842 161.246 413.633 161.035 414.523 161.035ZM414.523 162.441C413.902 162.441 413.357 162.594 412.889 162.898C412.42 163.191 412.057 163.584 411.799 164.076C411.553 164.557 411.43 165.084 411.43 165.658C411.43 166.221 411.553 166.748 411.799 167.24C412.057 167.721 412.42 168.113 412.889 168.418C413.357 168.711 413.902 168.857 414.523 168.857C415.156 168.857 415.701 168.711 416.158 168.418C416.627 168.113 416.984 167.721 417.23 167.24C417.488 166.748 417.617 166.221 417.617 165.658C417.617 165.084 417.488 164.557 417.23 164.076C416.984 163.584 416.627 163.191 416.158 162.898C415.701 162.594 415.156 162.441 414.523 162.441ZM423.559 158.68V161.211H426.125V162.564H423.559V167.715C423.559 168.078 423.652 168.365 423.84 168.576C424.027 168.787 424.314 168.893 424.701 168.893C425.053 168.893 425.346 168.852 425.58 168.77C425.814 168.676 426.02 168.576 426.195 168.471V169.648C425.961 169.836 425.709 169.982 425.439 170.088C425.182 170.205 424.83 170.264 424.385 170.264C423.635 170.264 423.066 170.041 422.68 169.596C422.305 169.139 422.117 168.535 422.117 167.785V162.564H420.43V162.143C421.004 161.885 421.484 161.463 421.871 160.877C422.258 160.279 422.598 159.547 422.891 158.68H423.559ZM437.639 161.035C438.143 161.035 438.652 161.158 439.168 161.404C439.695 161.639 440.146 161.967 440.521 162.389V161.211H441.963V170H440.521V168.506C440.217 168.975 439.801 169.385 439.273 169.736C438.758 170.088 438.166 170.264 437.498 170.264C436.748 170.264 436.062 170.076 435.441 169.701C434.82 169.314 434.322 168.781 433.947 168.102C433.584 167.422 433.402 166.637 433.402 165.746C433.402 164.773 433.584 163.936 433.947 163.232C434.322 162.529 434.832 161.99 435.477 161.615C436.121 161.229 436.842 161.035 437.639 161.035ZM437.902 162.441C437.27 162.441 436.73 162.6 436.285 162.916C435.84 163.232 435.494 163.643 435.248 164.146C435.014 164.639 434.896 165.172 434.896 165.746C434.896 166.309 435.014 166.83 435.248 167.311C435.482 167.779 435.811 168.154 436.232 168.436C436.666 168.717 437.164 168.857 437.727 168.857C438.266 168.857 438.746 168.717 439.168 168.436C439.59 168.154 439.924 167.768 440.17 167.275C440.416 166.771 440.533 166.209 440.521 165.588L440.504 163.9C440.141 163.443 439.748 163.086 439.326 162.828C438.916 162.57 438.441 162.441 437.902 162.441ZM449.275 161.035C450.084 161.035 450.805 161.229 451.438 161.615C452.082 161.99 452.586 162.529 452.949 163.232C453.324 163.936 453.512 164.773 453.512 165.746C453.512 166.637 453.324 167.422 452.949 168.102C452.586 168.781 452.094 169.314 451.473 169.701C450.863 170.076 450.178 170.264 449.416 170.264C448.748 170.264 448.15 170.088 447.623 169.736C447.107 169.385 446.697 168.975 446.393 168.506V170H444.951V157.344H446.393V162.389C446.768 161.967 447.213 161.639 447.729 161.404C448.256 161.158 448.771 161.035 449.275 161.035ZM449.012 162.459C448.473 162.459 447.998 162.588 447.588 162.846C447.178 163.092 446.785 163.443 446.41 163.9L446.393 165.588C446.393 166.209 446.51 166.766 446.744 167.258C446.99 167.75 447.324 168.137 447.746 168.418C448.18 168.699 448.66 168.84 449.188 168.84C449.762 168.84 450.26 168.699 450.682 168.418C451.104 168.137 451.432 167.762 451.666 167.293C451.9 166.824 452.018 166.309 452.018 165.746C452.018 165.172 451.895 164.639 451.648 164.146C451.414 163.643 451.074 163.238 450.629 162.934C450.184 162.617 449.645 162.459 449.012 162.459ZM459.857 161.035C460.748 161.035 461.539 161.246 462.23 161.668C462.922 162.09 463.461 162.652 463.848 163.355C464.246 164.059 464.445 164.826 464.445 165.658C464.445 166.49 464.246 167.258 463.848 167.961C463.461 168.652 462.922 169.209 462.23 169.631C461.539 170.053 460.748 170.264 459.857 170.264C458.967 170.264 458.176 170.053 457.484 169.631C456.793 169.209 456.248 168.652 455.85 167.961C455.463 167.258 455.27 166.49 455.27 165.658C455.27 164.826 455.463 164.059 455.85 163.355C456.248 162.652 456.793 162.09 457.484 161.668C458.176 161.246 458.967 161.035 459.857 161.035ZM459.857 162.441C459.236 162.441 458.691 162.594 458.223 162.898C457.754 163.191 457.391 163.584 457.133 164.076C456.887 164.557 456.764 165.084 456.764 165.658C456.764 166.221 456.887 166.748 457.133 167.24C457.391 167.721 457.754 168.113 458.223 168.418C458.691 168.711 459.236 168.857 459.857 168.857C460.49 168.857 461.035 168.711 461.492 168.418C461.961 168.113 462.318 167.721 462.564 167.24C462.822 166.748 462.951 166.221 462.951 165.658C462.951 165.084 462.822 164.557 462.564 164.076C462.318 163.584 461.961 163.191 461.492 162.898C461.035 162.594 460.49 162.441 459.857 162.441ZM474.008 161.211V166.414C474.008 167.188 473.844 167.855 473.516 168.418C473.188 168.98 472.742 169.414 472.18 169.719C471.617 170.023 470.984 170.176 470.281 170.176C469.578 170.176 468.945 170.023 468.383 169.719C467.82 169.414 467.375 168.98 467.047 168.418C466.719 167.855 466.555 167.188 466.555 166.414V161.211H468.049V166.414C468.049 167.176 468.271 167.762 468.717 168.172C469.174 168.57 469.695 168.77 470.281 168.77C470.867 168.77 471.383 168.57 471.828 168.172C472.285 167.762 472.514 167.176 472.514 166.414V161.211H474.008ZM479.158 158.68V161.211H481.725V162.564H479.158V167.715C479.158 168.078 479.252 168.365 479.439 168.576C479.627 168.787 479.914 168.893 480.301 168.893C480.652 168.893 480.945 168.852 481.18 168.77C481.414 168.676 481.619 168.576 481.795 168.471V169.648C481.561 169.836 481.309 169.982 481.039 170.088C480.781 170.205 480.43 170.264 479.984 170.264C479.234 170.264 478.666 170.041 478.279 169.596C477.904 169.139 477.717 168.535 477.717 167.785V162.564H476.029V162.143C476.604 161.885 477.084 161.463 477.471 160.877C477.857 160.279 478.197 159.547 478.49 158.68H479.158ZM491.059 161.211V162.336C491.34 162.02 491.697 161.727 492.131 161.457C492.576 161.176 493.098 161.035 493.695 161.035C494.328 161.035 494.92 161.188 495.471 161.492C496.021 161.785 496.443 162.23 496.736 162.828C497.146 162.336 497.592 161.914 498.072 161.562C498.553 161.211 499.115 161.035 499.76 161.035C500.357 161.035 500.914 161.17 501.43 161.439C501.957 161.697 502.379 162.096 502.695 162.635C503.023 163.162 503.188 163.83 503.188 164.639V170H501.746L501.729 164.779C501.729 164.018 501.529 163.438 501.131 163.039C500.744 162.641 500.205 162.441 499.514 162.441C499.01 162.441 498.57 162.6 498.195 162.916C497.82 163.232 497.463 163.602 497.123 164.023V170H495.682L495.664 164.779C495.664 164.018 495.465 163.438 495.066 163.039C494.68 162.641 494.141 162.441 493.449 162.441C492.969 162.441 492.529 162.582 492.131 162.863C491.744 163.145 491.387 163.484 491.059 163.883V170H489.617V161.211H491.059ZM509.533 161.035C510.436 161.035 511.186 161.223 511.783 161.598C512.381 161.973 512.826 162.482 513.119 163.127C513.424 163.771 513.576 164.498 513.576 165.307V166.168H506.826C506.896 166.66 507.066 167.111 507.336 167.521C507.605 167.932 507.957 168.26 508.391 168.506C508.824 168.74 509.322 168.857 509.885 168.857C510.518 168.857 511.109 168.699 511.66 168.383C512.211 168.055 512.674 167.697 513.049 167.311L513.031 168.875C512.867 169.074 512.621 169.285 512.293 169.508C511.977 169.719 511.607 169.895 511.186 170.035C510.775 170.188 510.342 170.264 509.885 170.264C508.994 170.264 508.203 170.053 507.512 169.631C506.82 169.209 506.275 168.652 505.877 167.961C505.49 167.258 505.297 166.49 505.297 165.658C505.297 164.826 505.479 164.059 505.842 163.355C506.205 162.652 506.703 162.09 507.336 161.668C507.98 161.246 508.713 161.035 509.533 161.035ZM509.533 162.441C508.807 162.441 508.209 162.688 507.74 163.18C507.271 163.66 506.979 164.246 506.861 164.938H512.152C512.094 164.363 511.93 163.895 511.66 163.531C511.402 163.168 511.086 162.898 510.711 162.723C510.336 162.535 509.943 162.441 509.533 162.441ZM516.564 167.926L518.006 168.418L516.424 173.111L515.334 172.83L516.564 167.926ZM527.621 157.344V170H526.18V157.344H527.621ZM534.23 161.035C535.133 161.035 535.883 161.223 536.48 161.598C537.078 161.973 537.523 162.482 537.816 163.127C538.121 163.771 538.273 164.498 538.273 165.307V166.168H531.523C531.594 166.66 531.764 167.111 532.033 167.521C532.303 167.932 532.654 168.26 533.088 168.506C533.521 168.74 534.02 168.857 534.582 168.857C535.215 168.857 535.807 168.699 536.357 168.383C536.908 168.055 537.371 167.697 537.746 167.311L537.729 168.875C537.564 169.074 537.318 169.285 536.99 169.508C536.674 169.719 536.305 169.895 535.883 170.035C535.473 170.188 535.039 170.264 534.582 170.264C533.691 170.264 532.9 170.053 532.209 169.631C531.518 169.209 530.973 168.652 530.574 167.961C530.188 167.258 529.994 166.49 529.994 165.658C529.994 164.826 530.176 164.059 530.539 163.355C530.902 162.652 531.4 162.09 532.033 161.668C532.678 161.246 533.41 161.035 534.23 161.035ZM534.23 162.441C533.504 162.441 532.906 162.688 532.438 163.18C531.969 163.66 531.676 164.246 531.559 164.938H536.85C536.791 164.363 536.627 163.895 536.357 163.531C536.1 163.168 535.783 162.898 535.408 162.723C535.033 162.535 534.641 162.441 534.23 162.441ZM543.072 158.68V161.211H545.639V162.564H543.072V167.715C543.072 168.078 543.166 168.365 543.354 168.576C543.541 168.787 543.828 168.893 544.215 168.893C544.566 168.893 544.859 168.852 545.094 168.77C545.328 168.676 545.533 168.576 545.709 168.471V169.648C545.475 169.836 545.223 169.982 544.953 170.088C544.695 170.205 544.344 170.264 543.898 170.264C543.148 170.264 542.58 170.041 542.193 169.596C541.818 169.139 541.631 168.535 541.631 167.785V162.564H539.943V162.143C540.518 161.885 540.998 161.463 541.385 160.877C541.771 160.279 542.111 159.547 542.404 158.68H543.072ZM554.973 161.211V162.336C555.254 162.02 555.611 161.727 556.045 161.457C556.49 161.176 557.012 161.035 557.609 161.035C558.242 161.035 558.834 161.188 559.385 161.492C559.936 161.785 560.357 162.23 560.65 162.828C561.061 162.336 561.506 161.914 561.986 161.562C562.467 161.211 563.029 161.035 563.674 161.035C564.271 161.035 564.828 161.17 565.344 161.439C565.871 161.697 566.293 162.096 566.609 162.635C566.938 163.162 567.102 163.83 567.102 164.639V170H565.66L565.643 164.779C565.643 164.018 565.443 163.438 565.045 163.039C564.658 162.641 564.119 162.441 563.428 162.441C562.924 162.441 562.484 162.6 562.109 162.916C561.734 163.232 561.377 163.602 561.037 164.023V170H559.596L559.578 164.779C559.578 164.018 559.379 163.438 558.98 163.039C558.594 162.641 558.055 162.441 557.363 162.441C556.883 162.441 556.443 162.582 556.045 162.863C555.658 163.145 555.301 163.484 554.973 163.883V170H553.531V161.211H554.973ZM573.447 161.035C574.35 161.035 575.1 161.223 575.697 161.598C576.295 161.973 576.74 162.482 577.033 163.127C577.338 163.771 577.49 164.498 577.49 165.307V166.168H570.74C570.811 166.66 570.98 167.111 571.25 167.521C571.52 167.932 571.871 168.26 572.305 168.506C572.738 168.74 573.236 168.857 573.799 168.857C574.432 168.857 575.023 168.699 575.574 168.383C576.125 168.055 576.588 167.697 576.963 167.311L576.945 168.875C576.781 169.074 576.535 169.285 576.207 169.508C575.891 169.719 575.521 169.895 575.1 170.035C574.689 170.188 574.256 170.264 573.799 170.264C572.908 170.264 572.117 170.053 571.426 169.631C570.734 169.209 570.189 168.652 569.791 167.961C569.404 167.258 569.211 166.49 569.211 165.658C569.211 164.826 569.393 164.059 569.756 163.355C570.119 162.652 570.617 162.09 571.25 161.668C571.895 161.246 572.627 161.035 573.447 161.035ZM573.447 162.441C572.721 162.441 572.123 162.688 571.654 163.18C571.186 163.66 570.893 164.246 570.775 164.938H576.066C576.008 164.363 575.844 163.895 575.574 163.531C575.316 163.168 575 162.898 574.625 162.723C574.25 162.535 573.857 162.441 573.447 162.441ZM592.906 161.211L588.828 165.043L593.135 170H591.307L587.826 165.992L586.578 167.152V170H585.137V157.344H586.578V165.5L590.955 161.211H592.906ZM596.158 161.211V162.6C596.346 162.365 596.586 162.131 596.879 161.896C597.172 161.65 597.5 161.445 597.863 161.281C598.238 161.117 598.625 161.035 599.023 161.035C599.621 161.035 600.166 161.17 600.658 161.439C601.15 161.697 601.543 162.096 601.836 162.635C602.129 163.162 602.275 163.83 602.275 164.639V170H600.834L600.816 164.779C600.816 164.018 600.646 163.438 600.307 163.039C599.979 162.641 599.469 162.441 598.777 162.441C598.309 162.441 597.84 162.617 597.371 162.969C596.914 163.309 596.51 163.707 596.158 164.164V170H594.717V161.211H596.158ZM608.973 161.035C609.863 161.035 610.654 161.246 611.346 161.668C612.037 162.09 612.576 162.652 612.963 163.355C613.361 164.059 613.561 164.826 613.561 165.658C613.561 166.49 613.361 167.258 612.963 167.961C612.576 168.652 612.037 169.209 611.346 169.631C610.654 170.053 609.863 170.264 608.973 170.264C608.082 170.264 607.291 170.053 606.6 169.631C605.908 169.209 605.363 168.652 604.965 167.961C604.578 167.258 604.385 166.49 604.385 165.658C604.385 164.826 604.578 164.059 604.965 163.355C605.363 162.652 605.908 162.09 606.6 161.668C607.291 161.246 608.082 161.035 608.973 161.035ZM608.973 162.441C608.352 162.441 607.807 162.594 607.338 162.898C606.869 163.191 606.506 163.584 606.248 164.076C606.002 164.557 605.879 165.084 605.879 165.658C605.879 166.221 606.002 166.748 606.248 167.24C606.506 167.721 606.869 168.113 607.338 168.418C607.807 168.711 608.352 168.857 608.973 168.857C609.605 168.857 610.15 168.711 610.607 168.418C611.076 168.113 611.434 167.721 611.68 167.24C611.938 166.748 612.066 166.221 612.066 165.658C612.066 165.084 611.938 164.557 611.68 164.076C611.434 163.584 611.076 163.191 610.607 162.898C610.15 162.594 609.605 162.441 608.973 162.441ZM627.465 161.211L624.389 170H623.492L621.084 163.795L618.676 170H617.779L614.703 161.211H616.426L618.377 167.381L620.68 161.211H621.488L623.791 167.381L625.742 161.211H627.465ZM635.902 156.992C636.242 156.992 636.523 157.115 636.746 157.361C636.98 157.596 637.098 157.871 637.098 158.188C637.098 158.492 636.98 158.768 636.746 159.014C636.523 159.26 636.242 159.383 635.902 159.383C635.562 159.383 635.275 159.26 635.041 159.014C634.818 158.768 634.707 158.492 634.707 158.188C634.707 157.871 634.818 157.596 635.041 157.361C635.275 157.115 635.562 156.992 635.902 156.992ZM636.799 161.211V170H635.357V162.564H633.969V161.211H636.799ZM644.463 161.211V162.564H641.896V170H640.455V162.564H639.066V161.211H640.455V160.086C640.455 159.395 640.59 158.832 640.859 158.398C641.129 157.953 641.475 157.625 641.896 157.414C642.318 157.191 642.746 157.08 643.18 157.08C643.777 157.08 644.264 157.238 644.639 157.555V158.82C644.463 158.703 644.252 158.609 644.006 158.539C643.76 158.469 643.514 158.439 643.268 158.451C642.834 158.463 642.494 158.604 642.248 158.873C642.014 159.131 641.896 159.588 641.896 160.244V161.211H644.463ZM652.145 161.211L655.221 167.68L658.209 161.211H659.932L653.463 174.219H651.793L654.307 169.473L650.422 161.211H652.145ZM665.662 161.035C666.553 161.035 667.344 161.246 668.035 161.668C668.727 162.09 669.266 162.652 669.652 163.355C670.051 164.059 670.25 164.826 670.25 165.658C670.25 166.49 670.051 167.258 669.652 167.961C669.266 168.652 668.727 169.209 668.035 169.631C667.344 170.053 666.553 170.264 665.662 170.264C664.771 170.264 663.98 170.053 663.289 169.631C662.598 169.209 662.053 168.652 661.654 167.961C661.268 167.258 661.074 166.49 661.074 165.658C661.074 164.826 661.268 164.059 661.654 163.355C662.053 162.652 662.598 162.09 663.289 161.668C663.98 161.246 664.771 161.035 665.662 161.035ZM665.662 162.441C665.041 162.441 664.496 162.594 664.027 162.898C663.559 163.191 663.195 163.584 662.938 164.076C662.691 164.557 662.568 165.084 662.568 165.658C662.568 166.221 662.691 166.748 662.938 167.24C663.195 167.721 663.559 168.113 664.027 168.418C664.496 168.711 665.041 168.857 665.662 168.857C666.295 168.857 666.84 168.711 667.297 168.418C667.766 168.113 668.123 167.721 668.369 167.24C668.627 166.748 668.756 166.221 668.756 165.658C668.756 165.084 668.627 164.557 668.369 164.076C668.123 163.584 667.766 163.191 667.297 162.898C666.84 162.594 666.295 162.441 665.662 162.441ZM679.812 161.211V166.414C679.812 167.188 679.648 167.855 679.32 168.418C678.992 168.98 678.547 169.414 677.984 169.719C677.422 170.023 676.789 170.176 676.086 170.176C675.383 170.176 674.75 170.023 674.188 169.719C673.625 169.414 673.18 168.98 672.852 168.418C672.523 167.855 672.359 167.188 672.359 166.414V161.211H673.854V166.414C673.854 167.176 674.076 167.762 674.521 168.172C674.979 168.57 675.5 168.77 676.086 168.77C676.672 168.77 677.188 168.57 677.633 168.172C678.09 167.762 678.318 167.176 678.318 166.414V161.211H679.812ZM691.432 161.035C691.936 161.035 692.445 161.158 692.961 161.404C693.488 161.639 693.939 161.967 694.314 162.389V161.211H695.756V170H694.314V168.506C694.01 168.975 693.594 169.385 693.066 169.736C692.551 170.088 691.959 170.264 691.291 170.264C690.541 170.264 689.855 170.076 689.234 169.701C688.613 169.314 688.115 168.781 687.74 168.102C687.377 167.422 687.195 166.637 687.195 165.746C687.195 164.773 687.377 163.936 687.74 163.232C688.115 162.529 688.625 161.99 689.27 161.615C689.914 161.229 690.635 161.035 691.432 161.035ZM691.695 162.441C691.062 162.441 690.523 162.6 690.078 162.916C689.633 163.232 689.287 163.643 689.041 164.146C688.807 164.639 688.689 165.172 688.689 165.746C688.689 166.309 688.807 166.83 689.041 167.311C689.275 167.779 689.604 168.154 690.025 168.436C690.459 168.717 690.957 168.857 691.52 168.857C692.059 168.857 692.539 168.717 692.961 168.436C693.383 168.154 693.717 167.768 693.963 167.275C694.209 166.771 694.326 166.209 694.314 165.588L694.297 163.9C693.934 163.443 693.541 163.086 693.119 162.828C692.709 162.57 692.234 162.441 691.695 162.441ZM700.186 161.211V162.969C700.525 162.383 700.936 161.914 701.416 161.562C701.896 161.211 702.389 161.035 702.893 161.035C703.232 161.035 703.537 161.094 703.807 161.211V162.881C703.432 162.658 703.057 162.547 702.682 162.547C702.084 162.547 701.598 162.758 701.223 163.18C700.859 163.602 700.514 164.105 700.186 164.691V170H698.744V161.211H700.186ZM709.273 161.035C710.176 161.035 710.926 161.223 711.523 161.598C712.121 161.973 712.566 162.482 712.859 163.127C713.164 163.771 713.316 164.498 713.316 165.307V166.168H706.566C706.637 166.66 706.807 167.111 707.076 167.521C707.346 167.932 707.697 168.26 708.131 168.506C708.564 168.74 709.062 168.857 709.625 168.857C710.258 168.857 710.85 168.699 711.4 168.383C711.951 168.055 712.414 167.697 712.789 167.311L712.771 168.875C712.607 169.074 712.361 169.285 712.033 169.508C711.717 169.719 711.348 169.895 710.926 170.035C710.516 170.188 710.082 170.264 709.625 170.264C708.734 170.264 707.943 170.053 707.252 169.631C706.561 169.209 706.016 168.652 705.617 167.961C705.23 167.258 705.037 166.49 705.037 165.658C705.037 164.826 705.219 164.059 705.582 163.355C705.945 162.652 706.443 162.09 707.076 161.668C707.721 161.246 708.453 161.035 709.273 161.035ZM709.273 162.441C708.547 162.441 707.949 162.688 707.48 163.18C707.012 163.66 706.719 164.246 706.602 164.938H711.893C711.834 164.363 711.67 163.895 711.4 163.531C711.143 163.168 710.826 162.898 710.451 162.723C710.076 162.535 709.684 162.441 709.273 162.441ZM220.9 183.992C221.24 183.992 221.521 184.115 221.744 184.361C221.979 184.596 222.096 184.871 222.096 185.188C222.096 185.492 221.979 185.768 221.744 186.014C221.521 186.26 221.24 186.383 220.9 186.383C220.561 186.383 220.273 186.26 220.039 186.014C219.816 185.768 219.705 185.492 219.705 185.188C219.705 184.871 219.816 184.596 220.039 184.361C220.273 184.115 220.561 183.992 220.9 183.992ZM221.797 188.211V197H220.355V189.564H218.967V188.211H221.797ZM226.35 188.211V189.6C226.537 189.365 226.777 189.131 227.07 188.896C227.363 188.65 227.691 188.445 228.055 188.281C228.43 188.117 228.816 188.035 229.215 188.035C229.812 188.035 230.357 188.17 230.85 188.439C231.342 188.697 231.734 189.096 232.027 189.635C232.32 190.162 232.467 190.83 232.467 191.639V197H231.025L231.008 191.779C231.008 191.018 230.838 190.438 230.498 190.039C230.17 189.641 229.66 189.441 228.969 189.441C228.5 189.441 228.031 189.617 227.562 189.969C227.105 190.309 226.701 190.707 226.35 191.164V197H224.908V188.211H226.35ZM237.617 185.68V188.211H240.184V189.564H237.617V194.715C237.617 195.078 237.711 195.365 237.898 195.576C238.086 195.787 238.373 195.893 238.76 195.893C239.111 195.893 239.404 195.852 239.639 195.77C239.873 195.676 240.078 195.576 240.254 195.471V196.648C240.02 196.836 239.768 196.982 239.498 197.088C239.24 197.205 238.889 197.264 238.443 197.264C237.693 197.264 237.125 197.041 236.738 196.596C236.363 196.139 236.176 195.535 236.176 194.785V189.564H234.488V189.143C235.062 188.885 235.543 188.463 235.93 187.877C236.316 187.279 236.656 186.547 236.949 185.68H237.617ZM246.424 188.035C247.326 188.035 248.076 188.223 248.674 188.598C249.271 188.973 249.717 189.482 250.01 190.127C250.314 190.771 250.467 191.498 250.467 192.307V193.168H243.717C243.787 193.66 243.957 194.111 244.227 194.521C244.496 194.932 244.848 195.26 245.281 195.506C245.715 195.74 246.213 195.857 246.775 195.857C247.408 195.857 248 195.699 248.551 195.383C249.102 195.055 249.564 194.697 249.939 194.311L249.922 195.875C249.758 196.074 249.512 196.285 249.184 196.508C248.867 196.719 248.498 196.895 248.076 197.035C247.666 197.188 247.232 197.264 246.775 197.264C245.885 197.264 245.094 197.053 244.402 196.631C243.711 196.209 243.166 195.652 242.768 194.961C242.381 194.258 242.188 193.49 242.188 192.658C242.188 191.826 242.369 191.059 242.732 190.355C243.096 189.652 243.594 189.09 244.227 188.668C244.871 188.246 245.604 188.035 246.424 188.035ZM246.424 189.441C245.697 189.441 245.1 189.688 244.631 190.18C244.162 190.66 243.869 191.246 243.752 191.938H249.043C248.984 191.363 248.82 190.895 248.551 190.531C248.293 190.168 247.977 189.898 247.602 189.723C247.227 189.535 246.834 189.441 246.424 189.441ZM254.281 188.211V189.969C254.621 189.383 255.031 188.914 255.512 188.562C255.992 188.211 256.484 188.035 256.988 188.035C257.328 188.035 257.633 188.094 257.902 188.211V189.881C257.527 189.658 257.152 189.547 256.777 189.547C256.18 189.547 255.693 189.758 255.318 190.18C254.955 190.602 254.609 191.105 254.281 191.691V197H252.84V188.211H254.281ZM263.369 188.035C264.271 188.035 265.021 188.223 265.619 188.598C266.217 188.973 266.662 189.482 266.955 190.127C267.26 190.771 267.412 191.498 267.412 192.307V193.168H260.662C260.732 193.66 260.902 194.111 261.172 194.521C261.441 194.932 261.793 195.26 262.227 195.506C262.66 195.74 263.158 195.857 263.721 195.857C264.354 195.857 264.945 195.699 265.496 195.383C266.047 195.055 266.51 194.697 266.885 194.311L266.867 195.875C266.703 196.074 266.457 196.285 266.129 196.508C265.812 196.719 265.443 196.895 265.021 197.035C264.611 197.188 264.178 197.264 263.721 197.264C262.83 197.264 262.039 197.053 261.348 196.631C260.656 196.209 260.111 195.652 259.713 194.961C259.326 194.258 259.133 193.49 259.133 192.658C259.133 191.826 259.314 191.059 259.678 190.355C260.041 189.652 260.539 189.09 261.172 188.668C261.816 188.246 262.549 188.035 263.369 188.035ZM263.369 189.441C262.643 189.441 262.045 189.688 261.576 190.18C261.107 190.66 260.814 191.246 260.697 191.938H265.988C265.93 191.363 265.766 190.895 265.496 190.531C265.238 190.168 264.922 189.898 264.547 189.723C264.172 189.535 263.779 189.441 263.369 189.441ZM272.404 188.035C272.92 188.035 273.4 188.111 273.846 188.264C274.291 188.404 274.613 188.551 274.812 188.703V190.25C274.566 190.062 274.232 189.881 273.811 189.705C273.389 189.529 272.955 189.441 272.51 189.441C271.959 189.441 271.543 189.57 271.262 189.828C270.992 190.086 270.857 190.355 270.857 190.637C270.857 190.859 270.934 191.088 271.086 191.322C271.25 191.545 271.531 191.727 271.93 191.867L273.406 192.395C273.98 192.594 274.408 192.881 274.689 193.256C274.971 193.631 275.111 194.07 275.111 194.574C275.111 195.066 274.971 195.518 274.689 195.928C274.42 196.338 274.039 196.666 273.547 196.912C273.066 197.146 272.51 197.264 271.877 197.264C271.537 197.264 271.18 197.217 270.805 197.123C270.441 197.041 270.113 196.941 269.82 196.824C269.527 196.695 269.311 196.584 269.17 196.49V194.943C269.334 195.061 269.562 195.195 269.855 195.348C270.16 195.488 270.482 195.611 270.822 195.717C271.162 195.811 271.479 195.857 271.771 195.857C272.322 195.857 272.756 195.734 273.072 195.488C273.4 195.242 273.564 194.938 273.564 194.574C273.564 194.293 273.453 194.07 273.23 193.906C273.02 193.742 272.709 193.584 272.299 193.432L270.998 192.957C270.318 192.699 269.867 192.377 269.645 191.99C269.422 191.592 269.311 191.141 269.311 190.637C269.311 189.887 269.592 189.266 270.154 188.773C270.717 188.281 271.467 188.035 272.404 188.035ZM279.734 185.68V188.211H282.301V189.564H279.734V194.715C279.734 195.078 279.828 195.365 280.016 195.576C280.203 195.787 280.49 195.893 280.877 195.893C281.229 195.893 281.521 195.852 281.756 195.77C281.99 195.676 282.195 195.576 282.371 195.471V196.648C282.137 196.836 281.885 196.982 281.615 197.088C281.357 197.205 281.006 197.264 280.561 197.264C279.811 197.264 279.242 197.041 278.855 196.596C278.48 196.139 278.293 195.535 278.293 194.785V189.564H276.605V189.143C277.18 188.885 277.66 188.463 278.047 187.877C278.434 187.279 278.773 186.547 279.066 185.68H279.734ZM288.541 188.035C289.443 188.035 290.193 188.223 290.791 188.598C291.389 188.973 291.834 189.482 292.127 190.127C292.432 190.771 292.584 191.498 292.584 192.307V193.168H285.834C285.904 193.66 286.074 194.111 286.344 194.521C286.613 194.932 286.965 195.26 287.398 195.506C287.832 195.74 288.33 195.857 288.893 195.857C289.525 195.857 290.117 195.699 290.668 195.383C291.219 195.055 291.682 194.697 292.057 194.311L292.039 195.875C291.875 196.074 291.629 196.285 291.301 196.508C290.984 196.719 290.615 196.895 290.193 197.035C289.783 197.188 289.35 197.264 288.893 197.264C288.002 197.264 287.211 197.053 286.52 196.631C285.828 196.209 285.283 195.652 284.885 194.961C284.498 194.258 284.305 193.49 284.305 192.658C284.305 191.826 284.486 191.059 284.85 190.355C285.213 189.652 285.711 189.09 286.344 188.668C286.988 188.246 287.721 188.035 288.541 188.035ZM288.541 189.441C287.814 189.441 287.217 189.688 286.748 190.18C286.279 190.66 285.986 191.246 285.869 191.938H291.16C291.102 191.363 290.938 190.895 290.668 190.531C290.41 190.168 290.094 189.898 289.719 189.723C289.344 189.535 288.951 189.441 288.541 189.441ZM302.902 184.344V197H301.461V195.506C301.156 195.975 300.74 196.385 300.213 196.736C299.697 197.088 299.105 197.264 298.438 197.264C297.688 197.264 297.002 197.076 296.381 196.701C295.76 196.314 295.262 195.781 294.887 195.102C294.523 194.422 294.342 193.637 294.342 192.746C294.342 191.773 294.523 190.936 294.887 190.232C295.262 189.529 295.771 188.99 296.416 188.615C297.061 188.229 297.781 188.035 298.578 188.035C299.082 188.035 299.592 188.158 300.107 188.404C300.635 188.639 301.086 188.967 301.461 189.389V184.344H302.902ZM298.842 189.477C298.209 189.477 297.67 189.635 297.225 189.951C296.779 190.256 296.434 190.654 296.188 191.146C295.953 191.639 295.836 192.172 295.836 192.746C295.836 193.309 295.953 193.83 296.188 194.311C296.422 194.779 296.75 195.154 297.172 195.436C297.605 195.717 298.104 195.857 298.666 195.857C299.205 195.857 299.686 195.717 300.107 195.436C300.529 195.154 300.863 194.768 301.109 194.275C301.355 193.771 301.473 193.209 301.461 192.588L301.443 190.9C301.08 190.443 300.688 190.092 300.266 189.846C299.855 189.6 299.381 189.477 298.842 189.477ZM313.59 185.68V188.211H316.156V189.564H313.59V194.715C313.59 195.078 313.684 195.365 313.871 195.576C314.059 195.787 314.346 195.893 314.732 195.893C315.084 195.893 315.377 195.852 315.611 195.77C315.846 195.676 316.051 195.576 316.227 195.471V196.648C315.992 196.836 315.74 196.982 315.471 197.088C315.213 197.205 314.861 197.264 314.416 197.264C313.666 197.264 313.098 197.041 312.711 196.596C312.336 196.139 312.148 195.535 312.148 194.785V189.564H310.461V189.143C311.035 188.885 311.516 188.463 311.902 187.877C312.289 187.279 312.629 186.547 312.922 185.68H313.59ZM322.748 188.035C323.639 188.035 324.43 188.246 325.121 188.668C325.812 189.09 326.352 189.652 326.738 190.355C327.137 191.059 327.336 191.826 327.336 192.658C327.336 193.49 327.137 194.258 326.738 194.961C326.352 195.652 325.812 196.209 325.121 196.631C324.43 197.053 323.639 197.264 322.748 197.264C321.857 197.264 321.066 197.053 320.375 196.631C319.684 196.209 319.139 195.652 318.74 194.961C318.354 194.258 318.16 193.49 318.16 192.658C318.16 191.826 318.354 191.059 318.74 190.355C319.139 189.652 319.684 189.09 320.375 188.668C321.066 188.246 321.857 188.035 322.748 188.035ZM322.748 189.441C322.127 189.441 321.582 189.594 321.113 189.898C320.645 190.191 320.281 190.584 320.023 191.076C319.777 191.557 319.654 192.084 319.654 192.658C319.654 193.221 319.777 193.748 320.023 194.24C320.281 194.721 320.645 195.113 321.113 195.418C321.582 195.711 322.127 195.857 322.748 195.857C323.381 195.857 323.926 195.711 324.383 195.418C324.852 195.113 325.209 194.721 325.455 194.24C325.713 193.748 325.842 193.221 325.842 192.658C325.842 192.084 325.713 191.557 325.455 191.076C325.209 190.584 324.852 190.191 324.383 189.898C323.926 189.594 323.381 189.441 322.748 189.441ZM346.514 188.211L343.438 197H342.541L340.133 190.795L337.725 197H336.828L333.752 188.211H335.475L337.426 194.381L339.729 188.211H340.537L342.84 194.381L344.791 188.211H346.514ZM352.244 188.035C353.135 188.035 353.926 188.246 354.617 188.668C355.309 189.09 355.848 189.652 356.234 190.355C356.633 191.059 356.832 191.826 356.832 192.658C356.832 193.49 356.633 194.258 356.234 194.961C355.848 195.652 355.309 196.209 354.617 196.631C353.926 197.053 353.135 197.264 352.244 197.264C351.354 197.264 350.562 197.053 349.871 196.631C349.18 196.209 348.635 195.652 348.236 194.961C347.85 194.258 347.656 193.49 347.656 192.658C347.656 191.826 347.85 191.059 348.236 190.355C348.635 189.652 349.18 189.09 349.871 188.668C350.562 188.246 351.354 188.035 352.244 188.035ZM352.244 189.441C351.623 189.441 351.078 189.594 350.609 189.898C350.141 190.191 349.777 190.584 349.52 191.076C349.273 191.557 349.15 192.084 349.15 192.658C349.15 193.221 349.273 193.748 349.52 194.24C349.777 194.721 350.141 195.113 350.609 195.418C351.078 195.711 351.623 195.857 352.244 195.857C352.877 195.857 353.422 195.711 353.879 195.418C354.348 195.113 354.705 194.721 354.951 194.24C355.209 193.748 355.338 193.221 355.338 192.658C355.338 192.084 355.209 191.557 354.951 191.076C354.705 190.584 354.348 190.191 353.879 189.898C353.422 189.594 352.877 189.441 352.244 189.441ZM360.646 188.211V189.969C360.986 189.383 361.396 188.914 361.877 188.562C362.357 188.211 362.85 188.035 363.354 188.035C363.693 188.035 363.998 188.094 364.268 188.211V189.881C363.893 189.658 363.518 189.547 363.143 189.547C362.545 189.547 362.059 189.758 361.684 190.18C361.32 190.602 360.975 191.105 360.646 191.691V197H359.205V188.211H360.646ZM373.883 188.211L369.805 192.043L374.111 197H372.283L368.803 192.992L367.555 194.152V197H366.113V184.344H367.555V192.5L371.932 188.211H373.883ZM392.498 188.211L389.422 197H388.525L386.117 190.795L383.709 197H382.812L379.736 188.211H381.459L383.41 194.381L385.713 188.211H386.521L388.824 194.381L390.775 188.211H392.498ZM395.662 183.992C396.002 183.992 396.283 184.115 396.506 184.361C396.74 184.596 396.857 184.871 396.857 185.188C396.857 185.492 396.74 185.768 396.506 186.014C396.283 186.26 396.002 186.383 395.662 186.383C395.322 186.383 395.035 186.26 394.801 186.014C394.578 185.768 394.467 185.492 394.467 185.188C394.467 184.871 394.578 184.596 394.801 184.361C395.035 184.115 395.322 183.992 395.662 183.992ZM396.559 188.211V197H395.117V189.564H393.729V188.211H396.559ZM402.096 185.68V188.211H404.662V189.564H402.096V194.715C402.096 195.078 402.189 195.365 402.377 195.576C402.564 195.787 402.852 195.893 403.238 195.893C403.59 195.893 403.883 195.852 404.117 195.77C404.352 195.676 404.557 195.576 404.732 195.471V196.648C404.498 196.836 404.246 196.982 403.977 197.088C403.719 197.205 403.367 197.264 402.922 197.264C402.172 197.264 401.604 197.041 401.217 196.596C400.842 196.139 400.654 195.535 400.654 194.785V189.564H398.967V189.143C399.541 188.885 400.021 188.463 400.408 187.877C400.795 187.279 401.135 186.547 401.428 185.68H402.096ZM411.588 188.035C412.186 188.035 412.73 188.17 413.223 188.439C413.715 188.697 414.107 189.096 414.4 189.635C414.693 190.162 414.84 190.83 414.84 191.639V197H413.398L413.381 191.779C413.381 191.018 413.211 190.438 412.871 190.039C412.543 189.641 412.033 189.441 411.342 189.441C410.873 189.441 410.404 189.617 409.936 189.969C409.479 190.309 409.074 190.707 408.723 191.164V197H407.281V184.344H408.723V189.6C408.91 189.365 409.15 189.131 409.443 188.896C409.736 188.65 410.064 188.445 410.428 188.281C410.803 188.117 411.189 188.035 411.588 188.035ZM424.279 188.211V189.336C424.561 189.02 424.918 188.727 425.352 188.457C425.797 188.176 426.318 188.035 426.916 188.035C427.549 188.035 428.141 188.188 428.691 188.492C429.242 188.785 429.664 189.23 429.957 189.828C430.367 189.336 430.812 188.914 431.293 188.562C431.773 188.211 432.336 188.035 432.98 188.035C433.578 188.035 434.135 188.17 434.65 188.439C435.178 188.697 435.6 189.096 435.916 189.635C436.244 190.162 436.408 190.83 436.408 191.639V197H434.967L434.949 191.779C434.949 191.018 434.75 190.438 434.352 190.039C433.965 189.641 433.426 189.441 432.734 189.441C432.23 189.441 431.791 189.6 431.416 189.916C431.041 190.232 430.684 190.602 430.344 191.023V197H428.902L428.885 191.779C428.885 191.018 428.686 190.438 428.287 190.039C427.9 189.641 427.361 189.441 426.67 189.441C426.189 189.441 425.75 189.582 425.352 189.863C424.965 190.145 424.607 190.484 424.279 190.883V197H422.838V188.211H424.279ZM442.754 188.035C443.656 188.035 444.406 188.223 445.004 188.598C445.602 188.973 446.047 189.482 446.34 190.127C446.645 190.771 446.797 191.498 446.797 192.307V193.168H440.047C440.117 193.66 440.287 194.111 440.557 194.521C440.826 194.932 441.178 195.26 441.611 195.506C442.045 195.74 442.543 195.857 443.105 195.857C443.738 195.857 444.33 195.699 444.881 195.383C445.432 195.055 445.895 194.697 446.27 194.311L446.252 195.875C446.088 196.074 445.842 196.285 445.514 196.508C445.197 196.719 444.828 196.895 444.406 197.035C443.996 197.188 443.562 197.264 443.105 197.264C442.215 197.264 441.424 197.053 440.732 196.631C440.041 196.209 439.496 195.652 439.098 194.961C438.711 194.258 438.518 193.49 438.518 192.658C438.518 191.826 438.699 191.059 439.062 190.355C439.426 189.652 439.924 189.09 440.557 188.668C441.201 188.246 441.934 188.035 442.754 188.035ZM442.754 189.441C442.027 189.441 441.43 189.688 440.961 190.18C440.492 190.66 440.199 191.246 440.082 191.938H445.373C445.314 191.363 445.15 190.895 444.881 190.531C444.623 190.168 444.307 189.898 443.932 189.723C443.557 189.535 443.164 189.441 442.754 189.441ZM450.312 194.855C450.652 194.855 450.939 194.979 451.174 195.225C451.42 195.459 451.543 195.746 451.543 196.086C451.543 196.414 451.42 196.701 451.174 196.947C450.939 197.193 450.652 197.316 450.312 197.316C449.973 197.316 449.68 197.193 449.434 196.947C449.199 196.701 449.082 196.414 449.082 196.086C449.082 195.746 449.199 195.459 449.434 195.225C449.68 194.979 449.973 194.855 450.312 194.855Z" fill="#8491A0"/>
<path d="M230.837 76.0137V105.286H248.83V112H223.371V76.0137H230.837ZM268.273 84.1777C270.923 84.1777 273.197 84.7507 275.095 85.8965C277.028 87.0423 278.496 88.6357 279.499 90.6768C280.537 92.682 281.057 95.0094 281.057 97.6592V100.56H261.398C261.757 102.386 262.652 103.854 264.084 104.964C265.516 106.074 267.271 106.629 269.348 106.629C271.317 106.629 273.107 106.235 274.719 105.447C276.33 104.66 277.619 103.854 278.586 103.03L278.532 109.368C277.673 110.12 276.384 110.89 274.665 111.678C272.982 112.43 271.12 112.806 269.079 112.806C266.394 112.806 263.941 112.197 261.721 110.979C259.536 109.762 257.782 108.097 256.457 105.984C255.168 103.872 254.523 101.455 254.523 98.7334C254.523 96.0837 255.114 93.6667 256.296 91.4824C257.478 89.2982 259.107 87.5436 261.184 86.2188C263.26 84.8581 265.624 84.1777 268.273 84.1777ZM268.112 90.1396C266.429 90.1396 265.015 90.6589 263.869 91.6973C262.723 92.7357 261.936 94.1322 261.506 95.8867H274.504C274.361 93.9531 273.645 92.5208 272.355 91.5898C271.066 90.623 269.652 90.1396 268.112 90.1396ZM297.116 76.9805V84.876H304.636V90.5693H297.116V102.278C297.116 103.496 297.385 104.463 297.922 105.179C298.495 105.859 299.336 106.199 300.446 106.199C301.413 106.199 302.237 106.092 302.917 105.877C303.633 105.662 304.296 105.358 304.904 104.964V110.389C304.224 111.069 303.365 111.642 302.326 112.107C301.324 112.573 300.052 112.806 298.513 112.806C296.078 112.806 294.09 112.036 292.551 110.496C291.047 108.921 290.295 106.772 290.295 104.051V90.5693H285.407V87.0781C287.126 86.4694 288.701 85.3236 290.134 83.6406C291.602 81.9577 292.766 79.7376 293.625 76.9805H297.116ZM313.874 75.0469L319.89 76.5508L313.981 89.8174L309.04 88.958L313.874 75.0469ZM334.177 84.1777C335.86 84.1777 337.417 84.4284 338.85 84.9297C340.282 85.431 341.392 86.0039 342.18 86.6484V92.6641C341.32 92.0911 340.264 91.5361 339.011 90.999C337.793 90.4619 336.522 90.1934 335.197 90.1934C333.908 90.1934 332.888 90.4798 332.136 91.0527C331.384 91.6257 331.008 92.306 331.008 93.0938C331.008 93.6667 331.223 94.2038 331.652 94.7051C332.082 95.1706 332.906 95.5824 334.123 95.9404L337.185 96.9609C341.302 98.1784 343.361 100.56 343.361 104.104C343.361 105.787 342.878 107.291 341.911 108.616C340.98 109.905 339.709 110.926 338.098 111.678C336.522 112.43 334.768 112.806 332.834 112.806C331.008 112.806 329.235 112.519 327.517 111.946C325.798 111.373 324.491 110.747 323.596 110.066V104.104C324.276 104.57 325.1 105.018 326.066 105.447C327.033 105.877 328.036 106.235 329.074 106.521C330.113 106.772 331.062 106.897 331.921 106.897C333.282 106.897 334.32 106.665 335.036 106.199C335.788 105.698 336.164 105 336.164 104.104C336.164 103.424 335.86 102.887 335.251 102.493C334.642 102.099 333.747 101.705 332.565 101.312L329.235 100.13C327.159 99.4495 325.726 98.4827 324.938 97.2295C324.151 95.9762 323.757 94.4902 323.757 92.7715C323.757 91.0527 324.187 89.5667 325.046 88.3135C325.941 87.0244 327.176 86.0218 328.752 85.3057C330.327 84.5537 332.136 84.1777 334.177 84.1777ZM375.104 76.9805V84.876H382.624V90.5693H375.104V102.278C375.104 103.496 375.373 104.463 375.91 105.179C376.483 105.859 377.325 106.199 378.435 106.199C379.401 106.199 380.225 106.092 380.905 105.877C381.621 105.662 382.284 105.358 382.893 104.964V110.389C382.212 111.069 381.353 111.642 380.314 112.107C379.312 112.573 378.041 112.806 376.501 112.806C374.066 112.806 372.079 112.036 370.539 110.496C369.035 108.921 368.283 106.772 368.283 104.051V90.5693H363.396V87.0781C365.114 86.4694 366.69 85.3236 368.122 83.6406C369.59 81.9577 370.754 79.7376 371.613 76.9805H375.104ZM400.349 84.1777C401.817 84.1777 403.303 84.5179 404.807 85.1982C406.311 85.8786 407.564 86.7917 408.566 87.9375V84.876H415.388V112H408.566V107.435C407.779 108.903 406.633 110.174 405.129 111.248C403.625 112.286 401.87 112.806 399.865 112.806C397.681 112.806 395.658 112.251 393.796 111.141C391.97 110.031 390.502 108.419 389.392 106.307C388.282 104.194 387.727 101.634 387.727 98.626C387.727 95.6182 388.282 93.04 389.392 90.8916C390.537 88.7432 392.059 87.096 393.957 85.9502C395.891 84.7686 398.021 84.1777 400.349 84.1777ZM401.745 90.8379C400.313 90.8379 399.077 91.2139 398.039 91.9658C397.036 92.682 396.249 93.6309 395.676 94.8125C395.103 95.9941 394.816 97.2653 394.816 98.626C394.816 100.667 395.425 102.404 396.643 103.836C397.896 105.268 399.543 105.984 401.584 105.984C402.801 105.984 403.929 105.662 404.968 105.018C406.042 104.373 406.901 103.478 407.546 102.332C408.226 101.15 408.566 99.736 408.566 98.0889V94.2217C407.6 93.1833 406.543 92.3597 405.397 91.751C404.287 91.1423 403.07 90.8379 401.745 90.8379ZM430.588 73.3281V112H423.767V73.3281H430.588ZM445.734 73.3281V96.9609L456.799 84.876H465.339L453.63 96.6387L465.93 112H457.336L449.118 101.204L445.734 104.588V112H438.913V73.3281H445.734ZM501.54 84.1777C503.868 84.1777 505.98 84.7686 507.878 85.9502C509.812 87.096 511.333 88.7432 512.443 90.8916C513.589 93.04 514.162 95.6182 514.162 98.626C514.162 101.634 513.589 104.194 512.443 106.307C511.333 108.419 509.847 110.031 507.985 111.141C506.159 112.251 504.172 112.806 502.023 112.806C500.018 112.806 498.264 112.286 496.76 111.248C495.256 110.174 494.11 108.903 493.322 107.435V112H486.501V73.3281H493.322V87.9375C494.325 86.7917 495.56 85.8786 497.028 85.1982C498.532 84.5179 500.036 84.1777 501.54 84.1777ZM500.144 90.8916C498.819 90.8916 497.583 91.196 496.438 91.8047C495.327 92.3776 494.289 93.1833 493.322 94.2217V98.0889C493.286 99.736 493.591 101.15 494.235 102.332C494.916 103.478 495.793 104.373 496.867 105.018C497.941 105.626 499.087 105.931 500.305 105.931C502.346 105.931 503.975 105.232 505.192 103.836C506.446 102.404 507.072 100.667 507.072 98.626C507.072 97.2653 506.786 96.012 506.213 94.8662C505.64 93.6846 504.834 92.7357 503.796 92.0195C502.757 91.2676 501.54 90.8916 500.144 90.8916ZM544.616 84.876V101.043C544.616 103.442 544.079 105.519 543.005 107.273C541.931 108.992 540.463 110.317 538.601 111.248C536.774 112.179 534.698 112.645 532.37 112.645C530.007 112.645 527.894 112.179 526.032 111.248C524.206 110.317 522.756 108.992 521.682 107.273C520.643 105.519 520.124 103.442 520.124 101.043V84.876H526.999L527.053 99.8076C527.053 101.92 527.536 103.496 528.503 104.534C529.47 105.573 530.759 106.092 532.37 106.092C533.946 106.092 535.217 105.573 536.184 104.534C537.186 103.496 537.688 101.92 537.688 99.8076V84.876H544.616ZM561.159 84.1777C562.842 84.1777 564.4 84.4284 565.832 84.9297C567.264 85.431 568.374 86.0039 569.162 86.6484V92.6641C568.303 92.0911 567.246 91.5361 565.993 90.999C564.776 90.4619 563.505 90.1934 562.18 90.1934C560.891 90.1934 559.87 90.4798 559.118 91.0527C558.366 91.6257 557.99 92.306 557.99 93.0938C557.99 93.6667 558.205 94.2038 558.635 94.7051C559.064 95.1706 559.888 95.5824 561.105 95.9404L564.167 96.9609C568.285 98.1784 570.344 100.56 570.344 104.104C570.344 105.787 569.86 107.291 568.894 108.616C567.963 109.905 566.691 110.926 565.08 111.678C563.505 112.43 561.75 112.806 559.816 112.806C557.99 112.806 556.218 112.519 554.499 111.946C552.78 111.373 551.473 110.747 550.578 110.066V104.104C551.258 104.57 552.082 105.018 553.049 105.447C554.016 105.877 555.018 106.235 556.057 106.521C557.095 106.772 558.044 106.897 558.903 106.897C560.264 106.897 561.302 106.665 562.019 106.199C562.771 105.698 563.146 105 563.146 104.104C563.146 103.424 562.842 102.887 562.233 102.493C561.625 102.099 560.729 101.705 559.548 101.312L556.218 100.13C554.141 99.4495 552.709 98.4827 551.921 97.2295C551.133 95.9762 550.739 94.4902 550.739 92.7715C550.739 91.0527 551.169 89.5667 552.028 88.3135C552.924 87.0244 554.159 86.0218 555.734 85.3057C557.31 84.5537 559.118 84.1777 561.159 84.1777ZM581.838 70.75C583.127 70.75 584.237 71.2155 585.168 72.1465C586.099 73.0417 586.564 74.1159 586.564 75.3691C586.564 76.5866 586.099 77.6608 585.168 78.5918C584.237 79.5228 583.127 79.9883 581.838 79.9883C580.549 79.9883 579.439 79.5228 578.508 78.5918C577.613 77.6608 577.165 76.5866 577.165 75.3691C577.165 74.1159 577.613 73.0417 578.508 72.1465C579.439 71.2155 580.549 70.75 581.838 70.75ZM585.812 84.876V112H578.991V90.6768H574.641V84.876H585.812ZM601.228 84.876V88.7432C602.051 87.6331 603.161 86.5947 604.558 85.6279C605.99 84.6611 607.619 84.1777 609.445 84.1777C612.202 84.1777 614.512 85.1087 616.374 86.9707C618.236 88.8327 619.167 91.6257 619.167 95.3496V112H612.346L612.292 96.2627C612.292 94.4365 611.844 93.0758 610.949 92.1807C610.09 91.2855 608.89 90.8379 607.351 90.8379C606.133 90.8379 604.987 91.2318 603.913 92.0195C602.875 92.8073 601.979 93.7383 601.228 94.8125V112H594.406V84.876H601.228ZM638.879 84.1777C641.529 84.1777 643.802 84.7507 645.7 85.8965C647.634 87.0423 649.102 88.6357 650.104 90.6768C651.143 92.682 651.662 95.0094 651.662 97.6592V100.56H632.004C632.362 102.386 633.257 103.854 634.689 104.964C636.122 106.074 637.876 106.629 639.953 106.629C641.923 106.629 643.713 106.235 645.324 105.447C646.936 104.66 648.225 103.854 649.191 103.03L649.138 109.368C648.278 110.12 646.989 110.89 645.271 111.678C643.588 112.43 641.726 112.806 639.685 112.806C636.999 112.806 634.546 112.197 632.326 110.979C630.142 109.762 628.387 108.097 627.062 105.984C625.773 103.872 625.129 101.455 625.129 98.7334C625.129 96.0837 625.72 93.6667 626.901 91.4824C628.083 89.2982 629.712 87.5436 631.789 86.2188C633.866 84.8581 636.229 84.1777 638.879 84.1777ZM638.718 90.1396C637.035 90.1396 635.62 90.6589 634.475 91.6973C633.329 92.7357 632.541 94.1322 632.111 95.8867H645.109C644.966 93.9531 644.25 92.5208 642.961 91.5898C641.672 90.623 640.257 90.1396 638.718 90.1396ZM666.647 84.1777C668.33 84.1777 669.888 84.4284 671.32 84.9297C672.753 85.431 673.863 86.0039 674.65 86.6484V92.6641C673.791 92.0911 672.735 91.5361 671.481 90.999C670.264 90.4619 668.993 90.1934 667.668 90.1934C666.379 90.1934 665.358 90.4798 664.606 91.0527C663.854 91.6257 663.479 92.306 663.479 93.0938C663.479 93.6667 663.693 94.2038 664.123 94.7051C664.553 95.1706 665.376 95.5824 666.594 95.9404L669.655 96.9609C673.773 98.1784 675.832 100.56 675.832 104.104C675.832 105.787 675.349 107.291 674.382 108.616C673.451 109.905 672.18 110.926 670.568 111.678C668.993 112.43 667.238 112.806 665.305 112.806C663.479 112.806 661.706 112.519 659.987 111.946C658.269 111.373 656.962 110.747 656.066 110.066V104.104C656.747 104.57 657.57 105.018 658.537 105.447C659.504 105.877 660.507 106.235 661.545 106.521C662.583 106.772 663.532 106.897 664.392 106.897C665.752 106.897 666.791 106.665 667.507 106.199C668.259 105.698 668.635 105 668.635 104.104C668.635 103.424 668.33 102.887 667.722 102.493C667.113 102.099 666.218 101.705 665.036 101.312L661.706 100.13C659.629 99.4495 658.197 98.4827 657.409 97.2295C656.621 95.9762 656.228 94.4902 656.228 92.7715C656.228 91.0527 656.657 89.5667 657.517 88.3135C658.412 87.0244 659.647 86.0218 661.223 85.3057C662.798 84.5537 664.606 84.1777 666.647 84.1777ZM690.388 84.1777C692.071 84.1777 693.628 84.4284 695.061 84.9297C696.493 85.431 697.603 86.0039 698.391 86.6484V92.6641C697.531 92.0911 696.475 91.5361 695.222 90.999C694.004 90.4619 692.733 90.1934 691.408 90.1934C690.119 90.1934 689.099 90.4798 688.347 91.0527C687.595 91.6257 687.219 92.306 687.219 93.0938C687.219 93.6667 687.434 94.2038 687.863 94.7051C688.293 95.1706 689.117 95.5824 690.334 95.9404L693.396 96.9609C697.513 98.1784 699.572 100.56 699.572 104.104C699.572 105.787 699.089 107.291 698.122 108.616C697.191 109.905 695.92 110.926 694.309 111.678C692.733 112.43 690.979 112.806 689.045 112.806C687.219 112.806 685.446 112.519 683.728 111.946C682.009 111.373 680.702 110.747 679.807 110.066V104.104C680.487 104.57 681.311 105.018 682.277 105.447C683.244 105.877 684.247 106.235 685.285 106.521C686.324 106.772 687.272 106.897 688.132 106.897C689.493 106.897 690.531 106.665 691.247 106.199C691.999 105.698 692.375 105 692.375 104.104C692.375 103.424 692.071 102.887 691.462 102.493C690.853 102.099 689.958 101.705 688.776 101.312L685.446 100.13C683.369 99.4495 681.937 98.4827 681.149 97.2295C680.362 95.9762 679.968 94.4902 679.968 92.7715C679.968 91.0527 680.397 89.5667 681.257 88.3135C682.152 87.0244 683.387 86.0218 684.963 85.3057C686.538 84.5537 688.347 84.1777 690.388 84.1777Z" fill="white"/>
<path d="M778.453 66.5312V77H777.922L771.125 69.5156V77H769.719V66.5312H770.25L777.047 74.1094V66.5312H778.453ZM784.719 69.0312C785.167 69.0312 785.62 69.1406 786.078 69.3594C786.547 69.5677 786.948 69.8594 787.281 70.2344V69.1875H788.562V77H787.281V75.6719C787.01 76.0885 786.641 76.4531 786.172 76.7656C785.714 77.0781 785.188 77.2344 784.594 77.2344C783.927 77.2344 783.318 77.0677 782.766 76.7344C782.214 76.3906 781.771 75.9167 781.438 75.3125C781.115 74.7083 780.953 74.0104 780.953 73.2188C780.953 72.3542 781.115 71.6094 781.438 70.9844C781.771 70.3594 782.224 69.8802 782.797 69.5469C783.37 69.2031 784.01 69.0312 784.719 69.0312ZM784.953 70.2812C784.391 70.2812 783.911 70.4219 783.516 70.7031C783.12 70.9844 782.812 71.349 782.594 71.7969C782.385 72.2344 782.281 72.7083 782.281 73.2188C782.281 73.7188 782.385 74.1823 782.594 74.6094C782.802 75.026 783.094 75.3594 783.469 75.6094C783.854 75.8594 784.297 75.9844 784.797 75.9844C785.276 75.9844 785.703 75.8594 786.078 75.6094C786.453 75.3594 786.75 75.0156 786.969 74.5781C787.188 74.1302 787.292 73.6302 787.281 73.0781L787.266 71.5781C786.943 71.1719 786.594 70.8542 786.219 70.625C785.854 70.3958 785.432 70.2812 784.953 70.2812ZM792.5 69.1875V70.1875C792.75 69.9062 793.068 69.6458 793.453 69.4062C793.849 69.1562 794.312 69.0312 794.844 69.0312C795.406 69.0312 795.932 69.1667 796.422 69.4375C796.911 69.6979 797.286 70.0938 797.547 70.625C797.911 70.1875 798.307 69.8125 798.734 69.5C799.161 69.1875 799.661 69.0312 800.234 69.0312C800.766 69.0312 801.26 69.151 801.719 69.3906C802.188 69.6198 802.562 69.974 802.844 70.4531C803.135 70.9219 803.281 71.5156 803.281 72.2344V77H802L801.984 72.3594C801.984 71.6823 801.807 71.1667 801.453 70.8125C801.109 70.4583 800.63 70.2812 800.016 70.2812C799.568 70.2812 799.177 70.4219 798.844 70.7031C798.51 70.9844 798.193 71.3125 797.891 71.6875V77H796.609L796.594 72.3594C796.594 71.6823 796.417 71.1667 796.062 70.8125C795.719 70.4583 795.24 70.2812 794.625 70.2812C794.198 70.2812 793.807 70.4062 793.453 70.6562C793.109 70.9062 792.792 71.2083 792.5 71.5625V77H791.219V69.1875H792.5ZM808.922 69.0312C809.724 69.0312 810.391 69.1979 810.922 69.5312C811.453 69.8646 811.849 70.3177 812.109 70.8906C812.38 71.4635 812.516 72.1094 812.516 72.8281V73.5938H806.516C806.578 74.0312 806.729 74.4323 806.969 74.7969C807.208 75.1615 807.521 75.4531 807.906 75.6719C808.292 75.8802 808.734 75.9844 809.234 75.9844C809.797 75.9844 810.323 75.8438 810.812 75.5625C811.302 75.2708 811.714 74.9531 812.047 74.6094L812.031 76C811.885 76.1771 811.667 76.3646 811.375 76.5625C811.094 76.75 810.766 76.9062 810.391 77.0312C810.026 77.1667 809.641 77.2344 809.234 77.2344C808.443 77.2344 807.74 77.0469 807.125 76.6719C806.51 76.2969 806.026 75.8021 805.672 75.1875C805.328 74.5625 805.156 73.8802 805.156 73.1406C805.156 72.401 805.318 71.7188 805.641 71.0938C805.964 70.4688 806.406 69.9688 806.969 69.5938C807.542 69.2188 808.193 69.0312 808.922 69.0312ZM808.922 70.2812C808.276 70.2812 807.745 70.5 807.328 70.9375C806.911 71.3646 806.651 71.8854 806.547 72.5H811.25C811.198 71.9896 811.052 71.5729 810.812 71.25C810.583 70.9271 810.302 70.6875 809.969 70.5312C809.635 70.3646 809.286 70.2812 808.922 70.2812Z" fill="white"/>
<rect x="768" y="92" width="526" height="50" fill="#F2F2F2"/>
<path d="M776.219 192.969V194.297H771.125V197.672H776.891V199H769.719V188.531H776.891V189.859H771.125V192.969H776.219ZM780.75 191.188V192.188C781 191.906 781.318 191.646 781.703 191.406C782.099 191.156 782.562 191.031 783.094 191.031C783.656 191.031 784.182 191.167 784.672 191.438C785.161 191.698 785.536 192.094 785.797 192.625C786.161 192.188 786.557 191.812 786.984 191.5C787.411 191.188 787.911 191.031 788.484 191.031C789.016 191.031 789.51 191.151 789.969 191.391C790.438 191.62 790.812 191.974 791.094 192.453C791.385 192.922 791.531 193.516 791.531 194.234V199H790.25L790.234 194.359C790.234 193.682 790.057 193.167 789.703 192.812C789.359 192.458 788.88 192.281 788.266 192.281C787.818 192.281 787.427 192.422 787.094 192.703C786.76 192.984 786.443 193.312 786.141 193.688V199H784.859L784.844 194.359C784.844 193.682 784.667 193.167 784.312 192.812C783.969 192.458 783.49 192.281 782.875 192.281C782.448 192.281 782.057 192.406 781.703 192.656C781.359 192.906 781.042 193.208 780.75 193.562V199H779.469V191.188H780.75ZM797.172 191.031C797.62 191.031 798.073 191.141 798.531 191.359C799 191.568 799.401 191.859 799.734 192.234V191.188H801.016V199H799.734V197.672C799.464 198.089 799.094 198.453 798.625 198.766C798.167 199.078 797.641 199.234 797.047 199.234C796.38 199.234 795.771 199.068 795.219 198.734C794.667 198.391 794.224 197.917 793.891 197.312C793.568 196.708 793.406 196.01 793.406 195.219C793.406 194.354 793.568 193.609 793.891 192.984C794.224 192.359 794.677 191.88 795.25 191.547C795.823 191.203 796.464 191.031 797.172 191.031ZM797.406 192.281C796.844 192.281 796.365 192.422 795.969 192.703C795.573 192.984 795.266 193.349 795.047 193.797C794.839 194.234 794.734 194.708 794.734 195.219C794.734 195.719 794.839 196.182 795.047 196.609C795.255 197.026 795.547 197.359 795.922 197.609C796.307 197.859 796.75 197.984 797.25 197.984C797.729 197.984 798.156 197.859 798.531 197.609C798.906 197.359 799.203 197.016 799.422 196.578C799.641 196.13 799.745 195.63 799.734 195.078L799.719 193.578C799.396 193.172 799.047 192.854 798.672 192.625C798.307 192.396 797.885 192.281 797.406 192.281ZM804.922 187.438C805.224 187.438 805.474 187.547 805.672 187.766C805.88 187.974 805.984 188.219 805.984 188.5C805.984 188.771 805.88 189.016 805.672 189.234C805.474 189.453 805.224 189.562 804.922 189.562C804.62 189.562 804.365 189.453 804.156 189.234C803.958 189.016 803.859 188.771 803.859 188.5C803.859 188.219 803.958 187.974 804.156 187.766C804.365 187.547 804.62 187.438 804.922 187.438ZM805.719 191.188V199H804.438V192.391H803.203V191.188H805.719ZM809.766 187.75V199H808.484V187.75H809.766Z" fill="white"/>
<rect x="768" y="214" width="526" height="50" fill="#F2F2F2"/>
<path d="M779.453 310.531V321H778.047V313.422L774.812 316.875H774.438L771.125 313.422V321H769.719V310.531H770.156L774.625 315.328L779.016 310.531H779.453ZM785.719 313.031C786.521 313.031 787.188 313.198 787.719 313.531C788.25 313.865 788.646 314.318 788.906 314.891C789.177 315.464 789.312 316.109 789.312 316.828V317.594H783.312C783.375 318.031 783.526 318.432 783.766 318.797C784.005 319.161 784.318 319.453 784.703 319.672C785.089 319.88 785.531 319.984 786.031 319.984C786.594 319.984 787.12 319.844 787.609 319.562C788.099 319.271 788.51 318.953 788.844 318.609L788.828 320C788.682 320.177 788.464 320.365 788.172 320.562C787.891 320.75 787.562 320.906 787.188 321.031C786.823 321.167 786.438 321.234 786.031 321.234C785.24 321.234 784.536 321.047 783.922 320.672C783.307 320.297 782.823 319.802 782.469 319.188C782.125 318.562 781.953 317.88 781.953 317.141C781.953 316.401 782.115 315.719 782.438 315.094C782.76 314.469 783.203 313.969 783.766 313.594C784.339 313.219 784.99 313.031 785.719 313.031ZM785.719 314.281C785.073 314.281 784.542 314.5 784.125 314.938C783.708 315.365 783.448 315.885 783.344 316.5H788.047C787.995 315.99 787.849 315.573 787.609 315.25C787.38 314.927 787.099 314.688 786.766 314.531C786.432 314.365 786.083 314.281 785.719 314.281ZM793.75 313.031C794.208 313.031 794.635 313.099 795.031 313.234C795.427 313.359 795.714 313.49 795.891 313.625V315C795.672 314.833 795.375 314.672 795 314.516C794.625 314.359 794.24 314.281 793.844 314.281C793.354 314.281 792.984 314.396 792.734 314.625C792.495 314.854 792.375 315.094 792.375 315.344C792.375 315.542 792.443 315.745 792.578 315.953C792.724 316.151 792.974 316.312 793.328 316.438L794.641 316.906C795.151 317.083 795.531 317.339 795.781 317.672C796.031 318.005 796.156 318.396 796.156 318.844C796.156 319.281 796.031 319.682 795.781 320.047C795.542 320.411 795.203 320.703 794.766 320.922C794.339 321.13 793.844 321.234 793.281 321.234C792.979 321.234 792.661 321.193 792.328 321.109C792.005 321.036 791.714 320.948 791.453 320.844C791.193 320.729 791 320.63 790.875 320.547V319.172C791.021 319.276 791.224 319.396 791.484 319.531C791.755 319.656 792.042 319.766 792.344 319.859C792.646 319.943 792.927 319.984 793.188 319.984C793.677 319.984 794.062 319.875 794.344 319.656C794.635 319.438 794.781 319.167 794.781 318.844C794.781 318.594 794.682 318.396 794.484 318.25C794.297 318.104 794.021 317.964 793.656 317.828L792.5 317.406C791.896 317.177 791.495 316.891 791.297 316.547C791.099 316.193 791 315.792 791 315.344C791 314.677 791.25 314.125 791.75 313.688C792.25 313.25 792.917 313.031 793.75 313.031ZM800.438 313.031C800.896 313.031 801.323 313.099 801.719 313.234C802.115 313.359 802.401 313.49 802.578 313.625V315C802.359 314.833 802.062 314.672 801.688 314.516C801.312 314.359 800.927 314.281 800.531 314.281C800.042 314.281 799.672 314.396 799.422 314.625C799.182 314.854 799.062 315.094 799.062 315.344C799.062 315.542 799.13 315.745 799.266 315.953C799.411 316.151 799.661 316.312 800.016 316.438L801.328 316.906C801.839 317.083 802.219 317.339 802.469 317.672C802.719 318.005 802.844 318.396 802.844 318.844C802.844 319.281 802.719 319.682 802.469 320.047C802.229 320.411 801.891 320.703 801.453 320.922C801.026 321.13 800.531 321.234 799.969 321.234C799.667 321.234 799.349 321.193 799.016 321.109C798.693 321.036 798.401 320.948 798.141 320.844C797.88 320.729 797.688 320.63 797.562 320.547V319.172C797.708 319.276 797.911 319.396 798.172 319.531C798.443 319.656 798.729 319.766 799.031 319.859C799.333 319.943 799.615 319.984 799.875 319.984C800.365 319.984 800.75 319.875 801.031 319.656C801.323 319.438 801.469 319.167 801.469 318.844C801.469 318.594 801.37 318.396 801.172 318.25C800.984 318.104 800.708 317.964 800.344 317.828L799.188 317.406C798.583 317.177 798.182 316.891 797.984 316.547C797.786 316.193 797.688 315.792 797.688 315.344C797.688 314.677 797.938 314.125 798.438 313.688C798.938 313.25 799.604 313.031 800.438 313.031ZM808.016 313.031C808.464 313.031 808.917 313.141 809.375 313.359C809.844 313.568 810.245 313.859 810.578 314.234V313.188H811.859V321H810.578V319.672C810.307 320.089 809.938 320.453 809.469 320.766C809.01 321.078 808.484 321.234 807.891 321.234C807.224 321.234 806.615 321.068 806.062 320.734C805.51 320.391 805.068 319.917 804.734 319.312C804.411 318.708 804.25 318.01 804.25 317.219C804.25 316.354 804.411 315.609 804.734 314.984C805.068 314.359 805.521 313.88 806.094 313.547C806.667 313.203 807.307 313.031 808.016 313.031ZM808.25 314.281C807.688 314.281 807.208 314.422 806.812 314.703C806.417 314.984 806.109 315.349 805.891 315.797C805.682 316.234 805.578 316.708 805.578 317.219C805.578 317.719 805.682 318.182 805.891 318.609C806.099 319.026 806.391 319.359 806.766 319.609C807.151 319.859 807.594 319.984 808.094 319.984C808.573 319.984 809 319.859 809.375 319.609C809.75 319.359 810.047 319.016 810.266 318.578C810.484 318.13 810.589 317.63 810.578 317.078L810.562 315.578C810.24 315.172 809.891 314.854 809.516 314.625C809.151 314.396 808.729 314.281 808.25 314.281ZM817.734 313.031C818.182 313.031 818.635 313.141 819.094 313.359C819.562 313.568 819.964 313.859 820.297 314.234V313.188H821.578V320.844C821.578 321.771 821.391 322.542 821.016 323.156C820.641 323.771 820.141 324.229 819.516 324.531C818.891 324.833 818.208 324.984 817.469 324.984C816.99 324.984 816.578 324.927 816.234 324.812C815.901 324.708 815.615 324.573 815.375 324.406C815.135 324.25 814.917 324.099 814.719 323.953V322.578C814.875 322.693 815.078 322.839 815.328 323.016C815.589 323.203 815.896 323.37 816.25 323.516C816.615 323.661 817.021 323.734 817.469 323.734C817.979 323.734 818.448 323.641 818.875 323.453C819.302 323.266 819.646 322.99 819.906 322.625C820.167 322.26 820.297 321.823 820.297 321.312V319.672C820.026 320.089 819.656 320.453 819.188 320.766C818.729 321.078 818.203 321.234 817.609 321.234C816.943 321.234 816.333 321.068 815.781 320.734C815.229 320.391 814.786 319.917 814.453 319.312C814.13 318.708 813.969 318.01 813.969 317.219C813.969 316.354 814.13 315.609 814.453 314.984C814.786 314.359 815.24 313.88 815.812 313.547C816.385 313.203 817.026 313.031 817.734 313.031ZM817.969 314.297C817.406 314.297 816.927 314.438 816.531 314.719C816.135 314.99 815.828 315.349 815.609 315.797C815.401 316.234 815.297 316.708 815.297 317.219C815.297 317.719 815.401 318.177 815.609 318.594C815.818 319.01 816.109 319.344 816.484 319.594C816.87 319.844 817.312 319.969 817.812 319.969C818.292 319.969 818.719 319.844 819.094 319.594C819.469 319.344 819.766 319 819.984 318.562C820.203 318.125 820.307 317.63 820.297 317.078L820.281 315.578C819.958 315.172 819.609 314.859 819.234 314.641C818.87 314.411 818.448 314.297 817.969 314.297ZM827.453 313.031C828.255 313.031 828.922 313.198 829.453 313.531C829.984 313.865 830.38 314.318 830.641 314.891C830.911 315.464 831.047 316.109 831.047 316.828V317.594H825.047C825.109 318.031 825.26 318.432 825.5 318.797C825.74 319.161 826.052 319.453 826.438 319.672C826.823 319.88 827.266 319.984 827.766 319.984C828.328 319.984 828.854 319.844 829.344 319.562C829.833 319.271 830.245 318.953 830.578 318.609L830.562 320C830.417 320.177 830.198 320.365 829.906 320.562C829.625 320.75 829.297 320.906 828.922 321.031C828.557 321.167 828.172 321.234 827.766 321.234C826.974 321.234 826.271 321.047 825.656 320.672C825.042 320.297 824.557 319.802 824.203 319.188C823.859 318.562 823.688 317.88 823.688 317.141C823.688 316.401 823.849 315.719 824.172 315.094C824.495 314.469 824.938 313.969 825.5 313.594C826.073 313.219 826.724 313.031 827.453 313.031ZM827.453 314.281C826.807 314.281 826.276 314.5 825.859 314.938C825.443 315.365 825.182 315.885 825.078 316.5H829.781C829.729 315.99 829.583 315.573 829.344 315.25C829.115 314.927 828.833 314.688 828.5 314.531C828.167 314.365 827.818 314.281 827.453 314.281Z" fill="white"/>
<rect x="768" y="336" width="526" height="100" fill="#F2F2F2"/>
<rect width="525" height="75" transform="translate(768 476)" fill="#DB3910"/>
<path d="M948.524 508.223V517.803H954.413V520H946.081V508.223H948.524ZM964.925 513.004V514.99H959.722V517.838H965.61V520H957.278V508.223H965.61V510.332H959.722V513.004H964.925ZM977.458 508.223V510.42H973.696V519.947H971.271V510.42H967.509V508.223H977.458ZM979.954 507.906L981.923 508.398L979.989 512.74L978.372 512.459L979.954 507.906ZM987.337 507.994C988.017 507.994 988.638 508.088 989.2 508.275C989.763 508.463 990.237 508.68 990.624 508.926V511.334C990.202 511.076 989.751 510.836 989.271 510.613C988.79 510.391 988.245 510.279 987.636 510.279C987.331 510.279 987.026 510.326 986.722 510.42C986.429 510.514 986.183 510.654 985.983 510.842C985.796 511.029 985.702 511.27 985.702 511.562C985.702 511.949 985.872 512.242 986.212 512.441C986.552 512.641 986.968 512.84 987.46 513.039L988.901 513.637C989.722 513.988 990.325 514.416 990.712 514.92C991.099 515.424 991.292 515.998 991.292 516.643C991.292 517.346 991.087 517.967 990.677 518.506C990.278 519.033 989.739 519.449 989.06 519.754C988.392 520.059 987.647 520.211 986.827 520.211C986.136 520.211 985.474 520.094 984.841 519.859C984.208 519.625 983.657 519.338 983.188 518.998V516.59C983.704 516.965 984.272 517.281 984.894 517.539C985.515 517.797 986.177 517.926 986.88 517.926C987.372 517.926 987.794 517.832 988.146 517.645C988.497 517.445 988.673 517.152 988.673 516.766C988.673 516.461 988.526 516.215 988.233 516.027C987.952 515.828 987.642 515.664 987.302 515.535L985.491 514.832C984.577 514.48 983.956 514.023 983.628 513.461C983.312 512.887 983.153 512.254 983.153 511.562C983.153 510.848 983.347 510.227 983.733 509.699C984.132 509.16 984.647 508.744 985.28 508.451C985.913 508.146 986.599 507.994 987.337 507.994ZM1004.7 513.619H1008.71V518.418C1008.22 518.934 1007.59 519.373 1006.83 519.736C1006.08 520.088 1005.23 520.264 1004.28 520.264C1003.44 520.264 1002.64 520.117 1001.89 519.824C1001.14 519.52 1000.48 519.098 999.905 518.559C999.331 518.008 998.88 517.357 998.552 516.607C998.224 515.857 998.06 515.025 998.06 514.111C998.06 513.197 998.224 512.365 998.552 511.615C998.88 510.865 999.331 510.221 999.905 509.682C1000.48 509.131 1001.14 508.709 1001.89 508.416C1002.64 508.111 1003.44 507.959 1004.28 507.959C1005.02 507.959 1005.66 508.064 1006.2 508.275C1006.74 508.475 1007.21 508.75 1007.6 509.102V511.562C1007.32 511.352 1007.03 511.146 1006.73 510.947C1006.42 510.748 1006.08 510.584 1005.69 510.455C1005.31 510.326 1004.87 510.262 1004.35 510.262C1003.65 510.262 1003.01 510.432 1002.44 510.771C1001.86 511.111 1001.41 511.568 1001.07 512.143C1000.73 512.717 1000.56 513.373 1000.56 514.111C1000.56 514.838 1000.73 515.494 1001.07 516.08C1001.41 516.654 1001.86 517.111 1002.44 517.451C1003.01 517.779 1003.65 517.943 1004.35 517.943C1004.89 517.943 1005.33 517.879 1005.65 517.75C1005.98 517.621 1006.24 517.48 1006.43 517.328L1006.44 515.377H1004.7V513.619ZM1019.03 513.004V514.99H1013.83V517.838H1019.72V520H1011.38V508.223H1019.72V510.332H1013.83V513.004H1019.03ZM1031.56 508.223V510.42H1027.8V519.947H1025.38V510.42H1021.61V508.223H1031.56ZM1042.29 507.994C1042.97 507.994 1043.59 508.088 1044.15 508.275C1044.71 508.463 1045.19 508.68 1045.57 508.926V511.334C1045.15 511.076 1044.7 510.836 1044.22 510.613C1043.74 510.391 1043.19 510.279 1042.58 510.279C1042.28 510.279 1041.98 510.326 1041.67 510.42C1041.38 510.514 1041.13 510.654 1040.93 510.842C1040.75 511.029 1040.65 511.27 1040.65 511.562C1040.65 511.949 1040.82 512.242 1041.16 512.441C1041.5 512.641 1041.92 512.84 1042.41 513.039L1043.85 513.637C1044.67 513.988 1045.27 514.416 1045.66 514.92C1046.05 515.424 1046.24 515.998 1046.24 516.643C1046.24 517.346 1046.04 517.967 1045.63 518.506C1045.23 519.033 1044.69 519.449 1044.01 519.754C1043.34 520.059 1042.6 520.211 1041.78 520.211C1041.08 520.211 1040.42 520.094 1039.79 519.859C1039.16 519.625 1038.61 519.338 1038.14 518.998V516.59C1038.65 516.965 1039.22 517.281 1039.84 517.539C1040.46 517.797 1041.13 517.926 1041.83 517.926C1042.32 517.926 1042.74 517.832 1043.09 517.645C1043.45 517.445 1043.62 517.152 1043.62 516.766C1043.62 516.461 1043.48 516.215 1043.18 516.027C1042.9 515.828 1042.59 515.664 1042.25 515.535L1040.44 514.832C1039.53 514.48 1038.91 514.023 1038.58 513.461C1038.26 512.887 1038.1 512.254 1038.1 511.562C1038.1 510.848 1038.3 510.227 1038.68 509.699C1039.08 509.16 1039.6 508.744 1040.23 508.451C1040.86 508.146 1041.55 507.994 1042.29 507.994ZM1057.39 508.223V510.42H1053.62V519.947H1051.2V510.42H1047.44V508.223H1057.39ZM1063.5 508.135L1068.99 520H1066.12L1065.23 517.803H1060.57L1059.67 520H1056.81L1062.29 508.135H1063.5ZM1062.91 512.125L1061.43 515.729H1064.38L1062.91 512.125ZM1075.7 508.223C1076.25 508.223 1076.79 508.299 1077.32 508.451C1077.85 508.604 1078.32 508.838 1078.74 509.154C1079.18 509.471 1079.52 509.869 1079.76 510.35C1080.02 510.818 1080.15 511.381 1080.15 512.037C1080.15 512.729 1079.97 513.326 1079.62 513.83C1079.28 514.322 1078.83 514.709 1078.27 514.99C1077.71 515.26 1077.1 515.418 1076.44 515.465L1080.68 520H1077.46L1073.36 515.184V520H1070.92V508.223H1075.7ZM1073.36 510.508V513.479C1073.65 513.572 1073.96 513.648 1074.3 513.707C1074.65 513.754 1075 513.777 1075.35 513.777C1076.05 513.777 1076.61 513.637 1077.02 513.355C1077.44 513.062 1077.65 512.652 1077.65 512.125C1077.65 511.551 1077.43 511.141 1076.99 510.895C1076.55 510.637 1076.02 510.508 1075.39 510.508H1073.36ZM1091.35 508.223V510.42H1087.58V519.947H1085.16V510.42H1081.4V508.223H1091.35ZM1101.23 513.004V514.99H1096.02V517.838H1101.91V520H1093.58V508.223H1101.91V510.332H1096.02V513.004H1101.23ZM1109.65 507.941C1110.89 507.941 1111.98 508.193 1112.92 508.697C1113.85 509.201 1114.58 509.904 1115.09 510.807C1115.62 511.709 1115.89 512.77 1115.89 513.988C1115.89 515.148 1115.64 516.203 1115.15 517.152C1114.66 518.09 1113.95 518.834 1113.04 519.385C1112.12 519.936 1111.03 520.211 1109.77 520.211C1108.96 520.211 1108.15 520.17 1107.34 520.088C1106.55 520.006 1105.79 519.895 1105.08 519.754V508.398C1105.8 508.281 1106.55 508.176 1107.31 508.082C1108.07 507.988 1108.85 507.941 1109.65 507.941ZM1109.7 510.227C1109.35 510.227 1108.98 510.244 1108.59 510.279C1108.2 510.314 1107.85 510.361 1107.52 510.42V517.732C1107.87 517.803 1108.23 517.855 1108.61 517.891C1109 517.914 1109.36 517.926 1109.7 517.926C1110.47 517.926 1111.13 517.762 1111.68 517.434C1112.24 517.094 1112.66 516.631 1112.95 516.045C1113.24 515.459 1113.39 514.803 1113.39 514.076C1113.39 513.326 1113.24 512.664 1112.95 512.09C1112.66 511.516 1112.24 511.064 1111.68 510.736C1111.13 510.396 1110.47 510.227 1109.7 510.227Z" fill="white"/>
</svg>
