<?xml version="1.0" encoding="utf-8"?>
<!-- Generator: Adobe Illustrator 28.1.0, SVG Export Plug-In . SVG Version: 6.00 Build 0)  -->
<svg version="1.1" id="Capa_2_00000171721327310323146500000001332459795414529181_"
	 xmlns="http://www.w3.org/2000/svg" xmlns:xlink="http://www.w3.org/1999/xlink" x="0px" y="0px" viewBox="0 0 322.2 253.7"
	 style="enable-background:new 0 0 322.2 253.7;" xml:space="preserve">
<g>
	<path d="M110.4,35.2l26,27.1H83.3L57.3,35.2l-0.1-0.1L23.7,0h53.1l156.8,0.1c28.5,0,53.9,13.7,70.1,35.1c6.1,8.1,11,17.2,14.1,27.1
		c1.1,3.5,2.1,7.1,2.8,10.8c1.1,5.7,1.7,11.5,1.7,17.5c0,6-0.6,11.8-1.6,17.4c-2.7,14.1-8.6,27.1-16.9,38
		c-13.3,17.5-32.6,29.8-54.9,33.8l1.2,1.2l36,37.6l33.5,35h-53l-33.5-35l-36-37.6h-20l-1-1c-0.1,0.4-0.1,0.7-0.2,1H86.5
		c-8.8-0.9-15.7-8.4-15.7-17.5c0-9.7,7.9-17.5,17.5-17.5h75.2l0,0v0h69.1c24,0,44.4-15.9,51.6-38c1.8-5.5,2.7-11.4,2.7-17.4
		c0-6.1-1-12-2.8-17.5c-1.2-3.8-2.9-7.4-4.8-10.8c-9.5-16.2-26.9-27.1-46.7-27.1h-69.1L110.4,35.2L110.4,35.2z"/>
	<path d="M212.9,218.7l33.5,35H79.1c-24.8-2.7-46.5-15.8-60.8-35C10.1,207.8,4.3,195,1.6,181.1C0.6,175.4,0,169.6,0,163.6
		c0-6,0.6-11.9,1.7-17.5c2.7-14.1,8.6-27.1,17-38c13.5-17.7,33.3-30.2,56-33.9c4.6-0.7,9.3-1.1,14-1.1c1.7,0,3.4,0,5.1,0.1l-0.1-0.1
		h136.9c9.7,0,17.5,7.9,17.5,17.5c0,9-6.9,16.5-15.7,17.4c0,0-135.4,0.1-144.8,0.1c-24,0-44.4,15.9-51.6,37.9
		c-1.8,5.5-2.8,11.4-2.8,17.5c0,6.1,1,12,2.7,17.5c6.5,20,23.8,34.9,44.8,37.6c2.2,0.3,4.5,0.4,6.8,0.4s4.5-0.1,6.8-0.4L212.9,218.7
		L212.9,218.7z"/>
</g>
</svg>
