<svg width="40" height="32" viewBox="0 0 40 32" fill="none" xmlns="http://www.w3.org/2000/svg">
<path d="M36.5437 6.42551H32.9566L32.1325 2.70171C31.7806 1.11099 30.397 0 28.7678 0H16.3148C14.6856 0 13.302 1.11092 12.95 2.70164L12.1259 6.42551H11.2747V4.83663C11.2747 3.94127 10.5462 3.21276 9.65075 3.21276H4.40002C3.50458 3.21276 2.77606 3.94127 2.77606 4.83663V6.42551H2.66143C1.19392 6.42551 0 7.61943 0 9.08702V27.1128C0 28.5803 1.19392 29.7743 2.66151 29.7743H5.38344H15.0047C17.1774 31.1817 19.7654 32 22.5412 32C25.3171 32 27.9051 31.1817 30.0777 29.7743H36.5437C38.0113 29.7743 39.2052 28.5803 39.2052 27.1128V9.08702C39.2052 7.61943 38.0113 6.42551 36.5437 6.42551ZM14.4451 3.03251C14.6408 2.1487 15.4095 1.53138 16.3147 1.53138H28.7677C29.6729 1.53138 30.4417 2.14863 30.6372 3.03251L31.3881 6.42551H30.0777C27.9051 5.01811 25.3171 4.19978 22.5412 4.19978C19.7654 4.19978 17.1774 5.01811 15.0047 6.42551H13.6942L14.4451 3.03251ZM4.30752 4.83663C4.30752 4.78563 4.34902 4.74421 4.40002 4.74421H9.65068C9.70167 4.74421 9.74318 4.78571 9.74318 4.83663V6.42551H4.30752V4.83663ZM6.14916 28.2427V19.9256C6.14916 19.5027 5.80635 19.1599 5.38344 19.1599C4.96053 19.1599 4.61771 19.5027 4.61771 19.9256V28.2428H2.66151C2.03844 28.2428 1.53145 27.7358 1.53145 27.1128V9.08702C1.53145 8.46388 2.03844 7.95697 2.66151 7.95697H3.54187H10.5089H12.7406H13.0475C10.3375 10.495 8.64107 14.1028 8.64107 18.0999C8.64107 22.0969 10.3375 25.7047 13.0475 28.2427H6.14916ZM29.6112 28.2428C28.6984 28.881 27.696 29.399 26.6268 29.7743C25.3471 30.2234 23.9724 30.4685 22.5412 30.4685C21.1101 30.4685 19.7352 30.2234 18.4556 29.7743C17.3864 29.399 16.3841 28.881 15.4713 28.2428C12.2705 26.005 10.1725 22.2931 10.1725 18.0999C10.1725 13.9067 12.2705 10.1949 15.4713 7.95704C16.384 7.31889 17.3864 6.80087 18.4556 6.42559C19.7353 5.97642 21.1101 5.73131 22.5412 5.73131C23.9724 5.73131 25.3472 5.97649 26.6268 6.42559C27.696 6.80087 28.6983 7.31889 29.6112 7.95704C32.812 10.1949 34.9099 13.9067 34.9099 18.0999C34.9099 22.2931 32.812 26.005 29.6112 28.2428ZM37.6737 27.1127C37.6737 27.7358 37.1668 28.2427 36.5437 28.2427H32.0349C34.7449 25.7047 36.4414 22.0969 36.4414 18.0999C36.4414 14.1028 34.7449 10.495 32.0349 7.95697H32.3418H36.5437C37.1668 7.95697 37.6737 8.46388 37.6737 9.08702V27.1127Z" fill="#DB3910"/>
<path d="M22.5417 8.04675C16.9983 8.04675 12.4885 12.5566 12.4885 18.1C12.4885 23.6433 16.9983 28.1531 22.5417 28.1531C23.3494 28.1531 24.1533 28.0569 24.9311 27.8673C25.342 27.767 25.5938 27.3528 25.4936 26.942C25.3935 26.5311 24.9791 26.2792 24.5683 26.3795C23.9091 26.5403 23.2272 26.6217 22.5417 26.6217C17.8428 26.6217 14.02 22.7989 14.02 18.1C14.02 13.4012 17.8428 9.57828 22.5417 9.57828C27.2405 9.57828 31.0634 13.4011 31.0634 18.1C31.0634 19.8127 30.5577 21.464 29.6007 22.8754C29.3634 23.2254 29.4549 23.7016 29.8049 23.9389C30.1547 24.1762 30.631 24.0849 30.8684 23.7348C31.9978 22.0688 32.5948 20.1203 32.5948 18.1001C32.5948 12.5566 28.085 8.04675 22.5417 8.04675Z" fill="#DB3910"/>
<path d="M5.38286 10.6038C3.81067 10.6038 2.53168 11.8828 2.53168 13.4549C2.53168 15.027 3.81075 16.3061 5.38286 16.3061C6.95497 16.3061 8.23404 15.027 8.23404 13.4549C8.23404 11.8828 6.95497 10.6038 5.38286 10.6038ZM5.38286 14.7747C4.65519 14.7747 4.06313 14.1827 4.06313 13.455C4.06313 12.7273 4.65519 12.1353 5.38286 12.1353C6.11053 12.1353 6.70259 12.7273 6.70259 13.455C6.70259 14.1827 6.1106 14.7747 5.38286 14.7747Z" fill="#DB3910"/>
<path d="M28.7216 25.485C28.7116 25.4368 28.697 25.3886 28.6779 25.3419C28.6588 25.2959 28.635 25.2515 28.6075 25.2101C28.58 25.168 28.5477 25.129 28.5125 25.0938C28.4773 25.0585 28.4375 25.0264 28.3961 24.998C28.354 24.9705 28.3096 24.9467 28.2636 24.9276C28.2177 24.9085 28.1695 24.8939 28.1205 24.884C28.0218 24.864 27.9199 24.864 27.8211 24.884C27.7721 24.8939 27.7238 24.9085 27.6779 24.9276C27.6319 24.9467 27.5876 24.9705 27.5455 24.998C27.5041 25.0264 27.4651 25.0585 27.4291 25.0938C27.3939 25.129 27.3617 25.168 27.3341 25.2101C27.3066 25.2515 27.2828 25.2959 27.2637 25.3419C27.2445 25.3886 27.23 25.4368 27.22 25.485C27.2101 25.5348 27.2048 25.5854 27.2048 25.6351C27.2048 25.6849 27.2101 25.7354 27.22 25.7844C27.23 25.8334 27.2445 25.8817 27.2637 25.9276C27.2828 25.9743 27.3066 26.0188 27.3341 26.0601C27.3617 26.1022 27.3939 26.1413 27.4291 26.1765C27.4651 26.2117 27.504 26.2439 27.5455 26.2714C27.5877 26.299 27.632 26.3227 27.6779 26.3419C27.7239 26.361 27.7721 26.3756 27.8211 26.3855C27.8708 26.3955 27.9207 26.4008 27.9705 26.4008C28.0209 26.4008 28.0708 26.3955 28.1205 26.3855C28.1695 26.3756 28.2178 26.361 28.2636 26.3419C28.3097 26.3227 28.3541 26.299 28.3961 26.2714C28.4375 26.2439 28.4773 26.2117 28.5125 26.1765C28.6549 26.0341 28.7362 25.8365 28.7362 25.6351C28.7362 25.5854 28.7315 25.5348 28.7216 25.485Z" fill="#DB3910"/>
</svg>
